<?xml version="1.0" encoding="utf-8" ?>
<svg xmlns="http://www.w3.org/2000/svg" xmlns:xlink="http://www.w3.org/1999/xlink" width="1024" height="1024">
	<path fill="#1E2E51" d="M0 0L1024 0L1024 1024L0 1024L0 0Z"/>
	<path fill="#5597F0" d="M554.51 205.401C555.203 205.466 555.254 205.453 556.014 205.62C557.79 206.011 559.373 207.13 560.133 208.811C560.704 210.075 560.696 211.467 560.227 212.754C559.486 214.794 558.027 215.775 556.152 216.679C554.288 216.54 552.415 216.162 551.253 214.527C550.319 213.213 550.007 211.838 550.36 210.253C550.905 207.804 552.468 206.642 554.51 205.401Z"/>
	<path fill="#17253E" d="M777.878 789.381L778.582 788.917C781.398 791.106 784.143 793.915 787.103 795.844C789.439 797.365 792.686 798.587 794.714 800.436C795.43 801.089 795.78 801.552 795.981 802.509C796.118 803.16 796.088 803.97 796.102 804.622L796.657 805.228L797.722 804.916C797.989 803.833 797.934 803.379 797.782 802.302C801.203 803.622 806.28 804.434 809.169 806.482C809.474 807.358 809.731 808.197 809.922 809.106L810.417 809.602C810.39 809.772 810.359 809.941 810.334 810.111C809.175 817.974 814.393 828.351 812.718 835.226Q810.117 821.202 808.768 807.003L798.694 803.753L798.569 840.523C803.212 840.568 808.06 840.905 812.672 840.359L813.487 839.482L813.776 837.741C814.331 838.787 814.235 838.981 814.099 840.177C813.06 841.262 812.727 841.212 811.257 841.259C806.484 841.412 800.129 841.941 795.501 841.136L795.126 840.386C794.864 827.575 795.008 814.738 795.005 801.924C789.161 798.146 782.716 794.437 777.878 789.381Z"/>
	<path fill="#E9EFFB" d="M122.265 517.289C123.059 517.469 124.228 517.519 124.777 518.149C126.697 520.351 125.763 526.78 125.721 529.622C127.845 529.587 130.004 529.5 132.125 529.591C133.867 529.665 135.803 530.139 137.024 531.449L136.7 532.334C133.103 534.321 129.614 533.872 125.627 533.778C125.699 536.988 126.575 543.335 124.657 546.029C123.841 545.89 123.101 545.638 122.314 545.387C120.043 542.911 121.062 537.135 121.135 533.929C119.064 533.954 116.959 534.027 114.891 533.934C113.173 533.857 111.212 533.37 110.024 532.059L110.289 531.25C113.815 529.185 117.232 529.604 121.188 529.67C121.074 525.848 120.278 520.686 122.265 517.289Z"/>
	<path fill="#5597F0" d="M457.367 201.574C458.943 201.332 460.807 201.127 462.383 201.468C464.74 201.976 466.987 203.823 468.113 205.927Q468.316 206.303 468.48 206.698Q468.644 207.093 468.767 207.502Q468.889 207.911 468.97 208.331Q469.051 208.751 469.089 209.176Q469.126 209.602 469.121 210.03Q469.115 210.457 469.066 210.882Q469.017 211.306 468.925 211.724Q468.834 212.141 468.7 212.547C467.737 215.463 465.774 216.86 463.17 218.259C461.788 218.449 460.21 218.612 458.835 218.341C456.638 217.908 454.572 216.497 453.321 214.651Q453.086 214.3 452.888 213.928Q452.689 213.555 452.527 213.165Q452.366 212.775 452.244 212.37Q452.123 211.966 452.041 211.552Q451.96 211.138 451.92 210.717Q451.88 210.297 451.881 209.875Q451.883 209.453 451.926 209.033Q451.969 208.613 452.054 208.199C452.707 204.989 454.699 203.224 457.367 201.574Z"/>
	<path fill="#E9EFFB" d="M898.252 589.712C899.343 589.738 900.119 589.862 901.148 590.227C903.558 593.011 902.395 599.649 902.346 603.193C904.778 603.128 907.361 602.915 909.78 603.151C911.528 603.322 913.381 603.95 914.505 605.289L914.082 606.104C910.223 608.096 906.642 607.646 902.404 607.549C902.451 611.51 903.53 618.663 900.919 621.825L898.991 620.985C896.689 618.266 897.833 611.118 897.906 607.656C895.277 607.711 892.52 607.915 889.902 607.696C888.037 607.54 885.609 606.968 884.358 605.53L884.7 604.688C888.623 602.354 893.524 603.047 897.912 603.2C897.876 598.726 897.64 594.151 898.252 589.712Z"/>
	<path fill="#E9EFFB" d="M588.822 123.141C590.933 123.33 592.882 123.653 594.699 124.798C597.307 126.44 599.104 128.91 599.736 131.939Q599.857 132.499 599.92 133.069Q599.983 133.638 599.987 134.211Q599.992 134.784 599.938 135.354Q599.884 135.925 599.772 136.487Q599.659 137.048 599.49 137.596Q599.321 138.143 599.097 138.671Q598.873 139.198 598.596 139.7Q598.32 140.201 597.993 140.672C595.791 143.799 593.003 144.758 589.376 145.336C587.144 145.071 585.175 144.702 583.249 143.476Q582.78 143.177 582.344 142.832Q581.907 142.487 581.509 142.1Q581.11 141.712 580.753 141.286Q580.396 140.859 580.084 140.399Q579.773 139.938 579.51 139.448Q579.247 138.958 579.035 138.443Q578.823 137.929 578.666 137.396Q578.508 136.863 578.405 136.316Q578.297 135.766 578.246 135.209Q578.195 134.651 578.2 134.091Q578.206 133.531 578.268 132.975Q578.331 132.418 578.449 131.871Q578.568 131.324 578.742 130.791Q578.916 130.259 579.143 129.747Q579.37 129.235 579.647 128.749Q579.925 128.262 580.251 127.807C582.446 124.733 585.223 123.734 588.822 123.141Z"/>
	<path fill="#1E2E51" d="M587.006 127.492C588.108 127.443 589.226 127.371 590.32 127.568C592.227 127.911 593.982 129.13 595.027 130.755C595.943 132.18 596.176 133.906 595.812 135.55C595.214 138.246 593.658 139.49 591.442 140.945C590.471 141.026 589.461 141.126 588.487 141.058C586.587 140.924 584.695 139.74 583.579 138.231C582.442 136.693 582.101 134.896 582.477 133.026C583.038 130.233 584.715 128.946 587.006 127.492Z"/>
	<path fill="#E9EFFB" d="M236.675 413.573C238.775 413.382 241.031 413.329 243.04 414.045C245.877 415.055 248.355 417.204 249.624 419.949Q249.884 420.5 250.085 421.076Q250.285 421.651 250.424 422.244Q250.564 422.838 250.64 423.442Q250.716 424.047 250.729 424.656Q250.742 425.266 250.69 425.873Q250.639 426.48 250.524 427.079Q250.41 427.677 250.233 428.26Q250.056 428.844 249.819 429.405C248.338 432.861 245.747 434.698 242.37 436.076C240.401 436.259 238.624 436.352 236.691 435.813Q236.143 435.664 235.613 435.46Q235.082 435.256 234.575 435Q234.069 434.743 233.591 434.436Q233.112 434.129 232.668 433.776Q232.223 433.422 231.817 433.025Q231.411 432.628 231.047 432.191Q230.683 431.755 230.366 431.284Q230.048 430.813 229.78 430.312Q229.513 429.806 229.298 429.276Q229.082 428.746 228.92 428.197Q228.757 427.648 228.65 427.086Q228.542 426.524 228.49 425.954Q228.438 425.384 228.442 424.812Q228.447 424.24 228.507 423.671Q228.568 423.102 228.684 422.542Q228.8 421.981 228.971 421.435C230.29 417.283 232.918 415.402 236.675 413.573Z"/>
	<path fill="#1E2E51" d="M238.687 416.577C240.007 416.711 241.387 416.811 242.611 417.36C244.661 418.28 246.3 420.108 247.04 422.223Q247.178 422.621 247.274 423.03Q247.37 423.44 247.422 423.857Q247.475 424.275 247.485 424.695Q247.494 425.116 247.46 425.536Q247.426 425.955 247.348 426.368Q247.271 426.782 247.151 427.185Q247.031 427.589 246.87 427.977Q246.708 428.366 246.508 428.736C245.063 431.361 243.047 432.262 240.259 432.984C238.999 432.905 237.741 432.827 236.553 432.363Q236.168 432.209 235.801 432.016Q235.435 431.822 235.09 431.591Q234.746 431.361 234.427 431.095Q234.109 430.829 233.821 430.531Q233.532 430.234 233.276 429.908Q233.02 429.581 232.8 429.23Q232.58 428.879 232.398 428.506Q232.216 428.134 232.074 427.744Q231.926 427.337 231.821 426.917Q231.716 426.497 231.655 426.068Q231.594 425.64 231.577 425.207Q231.56 424.775 231.588 424.343Q231.616 423.91 231.689 423.484Q231.761 423.057 231.877 422.64Q231.993 422.222 232.151 421.82Q232.309 421.417 232.508 421.032C233.846 418.384 235.963 417.376 238.687 416.577Z"/>
	<path fill="#27A66C" d="M798.694 803.753L808.768 807.003Q810.118 821.202 812.718 835.226C812.808 836.808 812.991 837.979 813.487 839.482L812.672 840.359C808.06 840.905 803.212 840.568 798.569 840.523L798.694 803.753Z"/>
	<path fill="#5597F0" d="M489.602 206.667C497.114 206.679 535.877 205.726 539.667 207.151C540.863 207.601 541.459 208.359 541.929 209.514C542.418 210.716 542.435 212.054 541.911 213.246C541.352 214.519 540.14 214.923 538.955 215.431C523.937 215.331 508.898 215.693 493.885 215.455C492.029 215.426 488.643 215.493 487.344 213.956C486.48 212.935 486.066 211.676 486.294 210.334C486.617 208.439 488.116 207.59 489.602 206.667Z"/>
	<path fill="#27A66C" d="M905.158 218.013C910.103 223.008 912.84 230.266 912.874 237.276C912.909 244.628 909.819 252.488 904.641 257.687C899.519 262.829 892.596 265.229 885.425 265.118Q884.719 265.113 884.015 265.073Q883.311 265.034 882.609 264.959Q881.907 264.885 881.21 264.776Q880.513 264.667 879.822 264.524Q879.131 264.381 878.448 264.204Q877.765 264.026 877.092 263.816Q876.418 263.605 875.756 263.362Q875.094 263.119 874.444 262.843Q873.795 262.567 873.16 262.259Q872.525 261.952 871.906 261.613Q871.286 261.275 870.685 260.907Q870.083 260.538 869.5 260.14Q868.918 259.742 868.355 259.316Q867.793 258.89 867.252 258.437Q866.711 257.984 866.193 257.505Q865.676 257.025 865.182 256.521Q864.7 256.027 864.244 255.509Q863.788 254.992 863.359 254.451Q862.93 253.911 862.529 253.349Q862.128 252.788 861.757 252.206Q861.385 251.625 861.043 251.026Q860.702 250.426 860.391 249.81Q860.08 249.194 859.802 248.563Q859.523 247.932 859.277 247.287Q859.031 246.643 858.818 245.986Q858.604 245.33 858.425 244.664Q858.246 243.998 858.101 243.323Q857.956 242.649 857.845 241.967Q857.735 241.286 857.659 240.601Q857.584 239.915 857.543 239.226Q857.503 238.537 857.497 237.847Q857.492 237.157 857.522 236.468C857.625 233.693 858.072 230.874 858.986 228.248Q859.249 229.648 859.545 231.042C861.222 238.891 865.588 245.611 872.488 249.87C878.05 253.305 884.492 254.47 890.861 252.886Q891.394 252.758 891.919 252.604Q892.445 252.449 892.962 252.269Q893.479 252.088 893.987 251.882Q894.495 251.676 894.991 251.445Q895.488 251.214 895.972 250.958Q896.457 250.702 896.928 250.422Q897.399 250.143 897.855 249.84Q898.312 249.537 898.752 249.211Q899.193 248.886 899.617 248.539Q900.041 248.192 900.447 247.824Q900.853 247.456 901.24 247.068Q901.627 246.681 901.994 246.274Q902.361 245.868 902.708 245.443Q903.054 245.019 903.379 244.578Q903.704 244.136 904.006 243.679Q904.308 243.222 904.587 242.751C909.711 233.997 907.638 226.995 905.158 218.013Z"/>
	<path fill="#17253E" d="M795.639 582.11C794.971 585.517 796.148 589.366 795.523 592.925C795.377 592.821 795.151 592.781 795.086 592.615C794.251 590.478 794.969 584.373 794.967 581.945L795.002 549.8C795.031 540.258 795.61 530.382 793.683 520.98C789.823 502.138 774.603 485.429 755.172 482.375C748.644 481.349 722.812 483.258 719.757 481.254C718.723 477.877 719.496 438.587 719.497 431.361Q718.796 347.104 719.952 262.85C720.129 254.029 720.062 245.173 719.975 236.351C719.929 231.735 720.186 226.672 719.552 222.112C719.122 219.026 714.718 210.981 715.285 208.803C717.73 212.973 718.753 217.992 720.706 222.422C723.522 228.806 726.781 235.013 729.665 241.373C731.131 244.605 732.174 248 733.663 251.219C736.317 256.95 740.389 263.488 741.609 269.667C734.493 270.17 727.339 270.532 720.281 271.594L720.451 481.066L747.959 480.951C761.478 481.785 773.018 486.034 782.218 496.327C797.069 512.944 795.613 530.646 795.643 551.338C795.657 561.578 795.891 571.875 795.639 582.11Z"/>
	<path fill="#27A66C" d="M169.263 787.282C180.75 788.972 190.577 793.694 197.673 803.127C199.697 805.817 201.558 808.916 202.48 812.172C204.318 818.664 202.994 833.913 202.984 841.477L153.291 841.451C145.909 841.455 137.352 842.398 130.155 841.138C134.577 840.561 139.478 840.929 143.943 840.949L169.128 841.084Q169.342 814.183 169.263 787.282Z"/>
	<path fill="#4EBA63" d="M858.986 228.248Q859.211 227.282 859.51 226.337Q859.809 225.392 860.18 224.473Q860.552 223.554 860.993 222.666Q861.435 221.778 861.944 220.928Q862.453 220.077 863.027 219.268Q863.6 218.46 864.234 217.698Q864.869 216.936 865.561 216.226Q866.252 215.516 866.997 214.861C872.243 210.216 879.025 208.053 885.987 208.467C893.831 208.934 899.926 212.29 905.158 218.013C907.638 226.995 909.711 233.997 904.587 242.751Q904.308 243.222 904.006 243.679Q903.704 244.136 903.379 244.578Q903.054 245.019 902.708 245.443Q902.361 245.868 901.994 246.274Q901.627 246.681 901.24 247.068Q900.853 247.456 900.447 247.824Q900.041 248.192 899.617 248.539Q899.193 248.886 898.752 249.211Q898.312 249.537 897.855 249.84Q897.399 250.143 896.928 250.422Q896.457 250.702 895.972 250.958Q895.488 251.214 894.991 251.445Q894.495 251.676 893.987 251.882Q893.479 252.088 892.962 252.269Q892.445 252.449 891.919 252.604Q891.394 252.758 890.861 252.886C884.492 254.47 878.05 253.305 872.488 249.87C865.588 245.611 861.222 238.891 859.545 231.042Q859.249 229.648 858.986 228.248Z"/>
	<defs>
		<linearGradient id="gradient_0" gradientUnits="userSpaceOnUse" x1="180.21449" y1="715.47766" x2="247.9937" y2="821.06775">
			<stop offset="0" stop-color="#3E6EFF"/>
			<stop offset="1" stop-color="#498DFF"/>
		</linearGradient>
	</defs>
	<path fill="url(#gradient_0)" d="M207.659 696.144C212.03 696.647 216.482 696.593 220.878 696.678L220.757 792.598L220.884 821.944C220.91 828.018 221.304 834.416 220.475 840.434C219.419 841.002 218.445 841.297 217.26 841.434C214.545 841.747 211.139 842.153 208.897 840.333C208.155 838.734 208.206 836.428 208.155 834.673C207.485 811.558 207.986 788.261 207.999 765.127C208.012 742.134 207.542 719.133 207.659 696.144Z"/>
	<path fill="#0F4534" d="M272.716 666.89C273.393 678.837 272.893 691.06 272.934 703.038C272.988 718.651 273.432 734.364 273.042 749.967C269.756 749.927 266.438 749.716 263.206 750.404C257.024 750.302 251.017 752.684 245.432 755.076L245.475 690.886C256.865 685.255 265.12 676.861 272.716 666.89Z"/>
	<path fill="#4EBA63" d="M130.155 841.138C127.533 835.467 126.492 828.898 126.996 822.682C127.841 812.245 133.103 802.789 141.094 796.108C149.207 789.325 158.762 786.316 169.263 787.282Q169.342 814.183 169.128 841.084L143.943 840.949C139.478 840.929 134.577 840.561 130.155 841.138Z"/>
	<path fill="#0F4534" d="M163.873 714.552C165.682 714.57 167.605 714.407 169.348 714.905C170.132 725.954 169.371 737.399 169.335 748.494C169.3 759.45 170.009 770.979 169.046 781.85C166.841 781.869 164.547 781.745 162.368 782.073C152.423 783.266 144.542 786.986 136.57 792.914C136.397 782.734 136.51 772.533 136.512 762.35C136.513 755.273 136.027 747.761 137.076 740.767C137.692 736.664 138.962 732.707 141.149 729.158C146.298 720.803 154.637 716.745 163.873 714.552Z"/>
	<path fill="#0E312C" d="M163.873 714.552C167.261 712.426 173.257 713.352 177.074 714.211C184.783 715.945 192.716 720.616 196.885 727.449C198.845 730.663 199.973 734.223 200.508 737.931C201.439 744.391 201.972 792.419 200.633 797.807L200.037 798.245C198.049 797.741 197.257 796.443 196.094 794.839C190.894 787.664 175.883 783.755 167.727 782.463C166.389 782.251 165.061 782.266 163.712 782.267C162.966 782.267 163.246 782.273 162.368 782.073C164.547 781.745 166.841 781.869 169.046 781.85C170.009 770.979 169.3 759.45 169.335 748.494C169.371 737.399 170.132 725.954 169.348 714.905C167.605 714.407 165.682 714.57 163.873 714.552Z"/>
	<path fill="#4FBAF2" d="M279.74 463.636C283.369 463.612 286.737 463.999 290.032 465.631C296.104 468.64 299.11 474.089 301.134 480.263C302.961 480.006 305.511 479.35 307.213 480.205C308.416 489.194 307.417 501.663 307.362 511.017L267.25 511.011L238.825 510.973C238.065 508.313 237.566 505.77 237.698 502.99C237.952 497.652 239.857 492.415 243.96 488.838C248.486 484.893 253.649 484.22 259.381 484.552C260.217 480.028 261.406 475.882 264.149 472.104C268.041 466.743 273.395 464.539 279.74 463.636Z"/>
	<path fill="#5597F0" d="M758.291 106.608C765.152 106.032 771.427 106.393 777.21 110.634C782.625 114.605 784.71 120.212 785.643 126.599C790.578 126.173 795.165 125.824 799.278 129.099Q799.774 129.495 800.225 129.941Q800.676 130.387 801.077 130.879Q801.478 131.37 801.825 131.901Q802.173 132.432 802.462 132.997Q802.751 133.562 802.979 134.154Q803.206 134.746 803.37 135.359Q803.534 135.972 803.632 136.599Q803.731 137.225 803.762 137.859Q803.79 138.412 803.761 138.965Q803.732 139.518 803.646 140.065Q803.56 140.612 803.418 141.147Q803.276 141.683 803.08 142.2Q802.884 142.718 802.635 143.213Q802.387 143.708 802.089 144.175Q801.791 144.641 801.446 145.075Q801.101 145.508 800.714 145.904C794.67 152.086 775.075 149.996 766.75 149.964C757.137 149.978 740.462 151.231 731.59 149.475C728.332 148.83 725.536 147.312 723.777 144.406C722.043 141.541 721.694 138.116 722.557 134.903Q722.704 134.343 722.906 133.801Q723.107 133.259 723.362 132.739Q723.616 132.219 723.921 131.727Q724.225 131.235 724.577 130.775Q724.928 130.316 725.323 129.893Q725.719 129.471 726.154 129.089Q726.589 128.708 727.06 128.371Q727.53 128.034 728.032 127.746C732.023 125.492 735.801 126.06 740.051 127.122C740.779 124.395 741.45 121.583 742.685 119.032C746.03 112.124 751.343 109.003 758.291 106.608Z"/>
	<path fill="#177B4E" d="M272.975 755.257C284.339 757.375 294.293 761.936 300.964 771.78Q301.968 773.244 302.814 774.804Q303.66 776.364 304.34 778.004Q305.02 779.644 305.526 781.345Q306.032 783.046 306.359 784.791C307.603 791.54 307.024 798.968 307.022 805.825L307.004 841.466L272.101 841.425C264.903 841.452 257.614 841.748 250.43 841.362C257.923 840.843 265.645 841.148 273.159 841.111L272.975 755.257Z"/>
	<path fill="#E9EFFB" d="M124.14 157.569C131.053 157.039 137.12 157.426 143.363 160.795Q144.015 161.143 144.649 161.523Q145.283 161.903 145.897 162.314Q146.511 162.726 147.103 163.168Q147.696 163.61 148.265 164.081Q148.835 164.552 149.38 165.051Q149.925 165.551 150.444 166.077Q150.963 166.603 151.455 167.154Q151.947 167.706 152.411 168.281Q152.874 168.857 153.308 169.455Q153.742 170.053 154.146 170.673Q154.549 171.292 154.921 171.931Q155.293 172.57 155.632 173.226Q155.971 173.883 156.276 174.556Q156.582 175.229 156.853 175.917Q157.124 176.604 157.361 177.304Q157.597 178.005 157.798 178.716Q158.002 179.432 158.17 180.158Q158.339 180.883 158.471 181.616Q158.604 182.349 158.7 183.087Q158.796 183.826 158.855 184.568Q158.915 185.311 158.938 186.055Q158.96 186.799 158.946 187.544Q158.932 188.288 158.882 189.031Q158.831 189.774 158.744 190.514Q158.656 191.254 158.532 191.988Q158.409 192.722 158.249 193.45Q158.089 194.177 157.893 194.896Q157.698 195.614 157.467 196.322Q157.236 197.03 156.971 197.726Q156.705 198.422 156.405 199.104Q156.106 199.786 155.773 200.452Q155.44 201.118 155.075 201.767C150.692 209.478 143.544 214.184 135.099 216.362C127.935 217.463 121.083 216.646 114.693 213.022Q114.041 212.646 113.409 212.239Q112.777 211.831 112.165 211.393Q111.554 210.954 110.965 210.486Q110.376 210.018 109.812 209.521Q109.247 209.024 108.707 208.5Q108.168 207.976 107.655 207.426Q107.142 206.875 106.657 206.3Q106.172 205.725 105.717 205.127Q105.261 204.528 104.835 203.908Q104.41 203.287 104.016 202.647Q103.621 202.006 103.26 201.347Q102.898 200.687 102.569 200.01Q102.24 199.334 101.945 198.642Q101.651 197.95 101.39 197.244Q101.13 196.538 100.906 195.82Q100.681 195.102 100.492 194.374Q100.302 193.654 100.147 192.925Q99.9927 192.197 99.8747 191.461Q99.7566 190.726 99.6753 189.986Q99.594 189.245 99.5496 188.502Q99.5052 187.758 99.4979 187.014Q99.4905 186.269 99.5201 185.525Q99.5498 184.78 99.6164 184.039Q99.683 183.297 99.7864 182.559Q99.8898 181.822 100.03 181.09Q100.17 180.359 100.346 179.635Q100.522 178.911 100.734 178.197Q100.946 177.483 101.193 176.781Q101.44 176.078 101.722 175.389Q102.004 174.699 102.319 174.025Q102.635 173.35 102.984 172.692Q103.333 172.034 103.714 171.394C108.434 163.626 115.628 159.774 124.14 157.569Z"/>
	<path fill="#1E2E51" d="M124.991 161.105Q126.041 160.961 127.099 160.898Q128.157 160.834 129.217 160.853Q130.276 160.871 131.331 160.971Q132.387 161.071 133.431 161.251Q134.475 161.432 135.503 161.692Q136.53 161.953 137.534 162.291Q138.539 162.63 139.514 163.045Q140.489 163.459 141.43 163.948Q142 164.243 142.554 164.565Q143.109 164.888 143.647 165.238Q144.184 165.588 144.704 165.964Q145.223 166.34 145.724 166.742Q146.224 167.144 146.703 167.57Q147.183 167.996 147.64 168.446Q148.098 168.895 148.532 169.367Q148.967 169.839 149.378 170.332Q149.788 170.825 150.173 171.338Q150.559 171.851 150.918 172.383Q151.277 172.914 151.61 173.463Q151.942 174.012 152.246 174.576Q152.551 175.141 152.827 175.72Q153.103 176.299 153.349 176.891Q153.596 177.484 153.813 178.087Q154.03 178.691 154.216 179.305Q154.41 179.928 154.572 180.56Q154.734 181.191 154.865 181.83Q154.995 182.469 155.094 183.114Q155.192 183.759 155.259 184.408Q155.325 185.057 155.359 185.708Q155.392 186.36 155.394 187.012Q155.395 187.664 155.363 188.316Q155.332 188.967 155.268 189.616Q155.204 190.265 155.108 190.91Q155.012 191.556 154.884 192.195Q154.756 192.835 154.596 193.467Q154.436 194.099 154.245 194.723Q154.053 195.346 153.831 195.96Q153.609 196.573 153.356 197.174Q153.104 197.776 152.821 198.364Q152.539 198.952 152.228 199.525C148.235 206.82 141.746 210.809 133.944 212.933C127.793 214.055 121.864 213.022 116.417 209.924Q115.848 209.6 115.296 209.249Q114.743 208.897 114.209 208.518Q113.675 208.139 113.161 207.734Q112.647 207.329 112.153 206.899Q111.66 206.469 111.189 206.014Q110.718 205.56 110.27 205.082Q109.822 204.605 109.398 204.105Q108.975 203.606 108.577 203.086Q108.179 202.566 107.808 202.027Q107.436 201.488 107.092 200.931Q106.748 200.374 106.433 199.8Q106.117 199.226 105.831 198.638Q105.544 198.049 105.287 197.447Q105.031 196.845 104.804 196.23Q104.578 195.616 104.383 194.991Q104.188 194.366 104.024 193.732Q103.851 193.068 103.711 192.396Q103.572 191.724 103.468 191.046Q103.363 190.368 103.293 189.685Q103.223 189.003 103.188 188.318Q103.153 187.632 103.153 186.946Q103.153 186.26 103.188 185.575Q103.222 184.889 103.292 184.207Q103.362 183.524 103.467 182.846Q103.571 182.168 103.711 181.496Q103.85 180.824 104.023 180.16Q104.196 179.496 104.403 178.842Q104.61 178.188 104.85 177.545Q105.09 176.902 105.362 176.272Q105.635 175.642 105.939 175.027Q106.243 174.412 106.578 173.814Q106.914 173.215 107.279 172.634C111.446 166.056 117.581 162.698 124.991 161.105Z"/>
	<path fill="#E9EFFB" d="M125.659 173.08C128.09 172.793 130.416 172.753 132.79 173.453Q133.504 173.659 134.193 173.937Q134.883 174.215 135.54 174.561Q136.198 174.908 136.817 175.32Q137.435 175.731 138.009 176.204Q138.583 176.676 139.105 177.205Q139.628 177.734 140.094 178.313Q140.56 178.892 140.964 179.515Q141.369 180.139 141.708 180.8Q142.033 181.431 142.29 182.092Q142.547 182.754 142.734 183.438Q142.921 184.123 143.035 184.823Q143.149 185.524 143.19 186.232Q143.23 186.94 143.196 187.649Q143.162 188.358 143.054 189.059Q142.946 189.761 142.766 190.447Q142.585 191.133 142.334 191.797C140.635 196.216 137.347 198.576 133.153 200.399C130.091 200.861 127.023 200.98 124.079 199.853Q123.412 199.602 122.774 199.284Q122.137 198.965 121.536 198.582Q120.935 198.198 120.377 197.755Q119.82 197.311 119.311 196.811Q118.803 196.312 118.349 195.762Q117.896 195.213 117.502 194.619Q117.108 194.025 116.777 193.393Q116.447 192.762 116.185 192.099C114.769 188.524 114.817 184.232 116.411 180.722C118.285 176.597 121.514 174.509 125.659 173.08Z"/>
	<path fill="#1E2E51" d="M127.209 176.548C128.831 176.49 130.609 176.61 132.155 177.139C134.981 178.107 137.42 180.264 138.622 183.007Q138.827 183.466 138.985 183.942Q139.143 184.419 139.252 184.909Q139.361 185.4 139.42 185.899Q139.48 186.397 139.488 186.9Q139.497 187.402 139.455 187.902Q139.413 188.403 139.321 188.897Q139.229 189.391 139.088 189.873Q138.947 190.355 138.758 190.82C137.321 194.384 134.796 195.87 131.364 197.213C129.002 197.418 126.74 197.283 124.583 196.195Q124.123 195.96 123.688 195.681Q123.253 195.402 122.848 195.08Q122.443 194.759 122.073 194.399Q121.702 194.039 121.368 193.644Q121.035 193.249 120.743 192.823Q120.451 192.397 120.202 191.944Q119.954 191.491 119.752 191.015Q119.55 190.539 119.396 190.046Q119.236 189.541 119.126 189.022Q119.016 188.503 118.958 187.976Q118.9 187.449 118.894 186.919Q118.888 186.389 118.934 185.861Q118.98 185.333 119.077 184.812Q119.175 184.291 119.323 183.782Q119.472 183.273 119.669 182.781Q119.867 182.289 120.112 181.819C121.713 178.789 124.06 177.562 127.209 176.548Z"/>
	<path fill="#27A66C" d="M888.507 778.127C892.75 776.542 897.049 774.973 901.466 776.942C903.734 777.954 905.001 779.472 905.775 781.823C908.488 790.065 904.603 800.448 900.675 807.675C892.831 822.106 880.404 832.923 864.546 837.52C853.014 840.862 840.461 840.623 828.556 840.018C830.058 830.964 831.717 817.338 835.054 809.052C835.644 807.315 835.996 805.501 836.412 803.715C854.548 800.333 866.509 793.289 879.433 780.362C882.435 780.451 885.67 779.024 888.507 778.127Z"/>
	<path fill="#177B4E" d="M879.433 780.362C882.435 780.451 885.67 779.024 888.507 778.127C879.822 792.007 862.31 804.111 846.475 807.841C842.667 808.738 838.958 809.032 835.054 809.052C835.644 807.315 835.996 805.501 836.412 803.715C854.548 800.333 866.509 793.289 879.433 780.362Z"/>
	<path fill="#0E312C" d="M272.716 666.89C274.13 663.608 275.719 660.38 276.868 656.994L277.092 657.885C278.944 658.858 283.81 657.978 286.064 658.239C293.026 659.045 304.748 665.791 307.075 672.655C308.131 675.771 308.435 765.484 307.738 773.202L306.494 773.776L306.797 774.529L307.538 774.328L307.162 774.918C306.342 773.704 307.111 773.128 306.674 772.082C306.158 770.844 304.01 768.831 303.046 767.692C296.078 759.461 287.961 754.091 277.278 752.014C272.629 751.11 267.873 751.16 263.206 750.404C266.438 749.716 269.756 749.927 273.042 749.967C273.432 734.364 272.988 718.651 272.934 703.038C272.893 691.06 273.393 678.837 272.716 666.89Z"/>
	<path fill="#27A66C" d="M227.082 841.278L227.021 809.557C226.994 803.403 226.677 797.053 227.241 790.926C228.187 780.659 233.794 770.799 241.748 764.313C250.716 757.001 261.569 754.124 272.975 755.257L273.159 841.111C265.645 841.148 257.923 840.843 250.43 841.362Q238.756 841.388 227.082 841.278Z"/>
	<path fill="#5597F0" d="M741.609 269.667C745.32 269.538 749.018 269.363 752.706 269.916C751.34 270.012 749.233 269.906 748.067 270.553C747.592 286.716 748.007 302.975 748.023 319.149C748.032 328.564 747.262 338.564 748.219 347.884C747.524 349.237 746.945 349.924 747.303 351.539C747.488 352.373 748.066 353.328 748.448 354.101C747.984 359.588 747.69 365.872 748.392 371.334C747.654 373.727 746.815 376.138 746.183 378.558C741.397 378.498 736.62 378.367 731.846 378.797C731.398 382.874 729.146 395.985 731.135 399.179C732.047 400.93 732.905 402.624 733.579 404.482C736.941 405.129 740.239 405.716 743.651 406.011C745.06 411.661 746.8 416.921 749.3 422.185C747.606 424.129 744.103 427.284 744.093 430.011C744.081 433.317 747.516 436.07 748.8 438.897L749.23 441.463C748.921 441.818 748.524 442.112 748.303 442.528C747.141 444.715 747.943 476.227 747.959 480.951L720.451 481.066L720.281 271.594C727.339 270.532 734.493 270.17 741.609 269.667Z"/>
	<path fill="#F9AE59" d="M170.289 279.151C180.174 277.375 191.513 280.36 199.697 285.976C208.952 292.327 216.322 302.59 218.269 313.742C222.912 340.351 192.809 380.882 177.94 402.193L175.197 406.195C160.496 385.757 137.341 352.65 133.206 327.986Q133.029 326.98 132.902 325.966Q132.776 324.952 132.7 323.933Q132.625 322.914 132.602 321.893Q132.578 320.871 132.606 319.85Q132.634 318.829 132.713 317.81Q132.792 316.791 132.923 315.778Q133.053 314.765 133.235 313.759Q133.416 312.754 133.648 311.759Q133.88 310.764 134.162 309.781Q134.443 308.799 134.774 307.833Q135.105 306.866 135.485 305.917Q135.864 304.969 136.29 304.04Q136.717 303.112 137.19 302.206Q137.663 301.3 138.181 300.42Q138.699 299.539 139.26 298.686Q139.822 297.832 140.426 297.008C147.752 286.936 158.089 281.049 170.289 279.151Z"/>
	<path fill="#17253E" d="M172.396 303.595C176.457 303.278 180.122 303.713 183.746 305.709Q184.177 305.951 184.595 306.213Q185.014 306.476 185.418 306.759Q185.823 307.042 186.213 307.345Q186.604 307.648 186.978 307.97Q187.353 308.292 187.711 308.633Q188.069 308.973 188.41 309.331Q188.75 309.689 189.073 310.063Q189.395 310.437 189.699 310.827Q190.002 311.217 190.286 311.621Q190.569 312.026 190.832 312.444Q191.095 312.862 191.337 313.293Q191.579 313.723 191.8 314.165Q192.02 314.608 192.218 315.06Q192.416 315.513 192.591 315.975Q192.766 316.437 192.918 316.907Q193.07 317.377 193.198 317.854Q193.434 318.724 193.583 319.613Q193.732 320.502 193.792 321.402Q193.852 322.301 193.823 323.202Q193.794 324.103 193.676 324.997Q193.557 325.89 193.351 326.768Q193.145 327.645 192.853 328.498Q192.561 329.351 192.186 330.171Q191.81 330.99 191.356 331.769C188.642 336.432 184.455 339.089 179.341 340.465C175.242 340.759 171.797 340.78 168.008 338.986C163.315 336.765 159.642 332.443 158.096 327.499C156.587 322.675 157.067 317.096 159.535 312.669C162.441 307.456 166.954 305.267 172.396 303.595Z"/>
	<path fill="#27A66C" d="M720.527 484.874C741.575 484.643 761.497 481.191 777.957 497.101C788.016 506.824 791.921 519.331 792.061 533.034L792.479 627.56L792.541 656.377C792.559 662.839 792.35 669.506 793.112 675.932C790.327 677.763 787.511 679.561 784.774 681.463C780.319 674.495 774.172 668.446 768.562 662.405Q754.562 647.295 740.108 632.617C733.709 626.027 727.532 618.531 720.55 612.59L720.38 611.985C720.93 596.131 720.523 580.14 720.531 564.273L720.527 484.874Z"/>
	<path fill="#177B4E" d="M740.8 528.038C742.345 528.03 743.797 528.125 745.289 528.563Q745.838 528.72 746.368 528.932Q746.898 529.145 747.403 529.411Q747.908 529.677 748.383 529.995Q748.858 530.312 749.297 530.676Q749.737 531.04 750.137 531.448Q750.536 531.856 750.891 532.303Q751.247 532.75 751.554 533.231Q751.861 533.713 752.117 534.223Q752.364 534.73 752.558 535.259Q752.752 535.789 752.891 536.335Q753.03 536.882 753.113 537.439Q753.196 537.997 753.221 538.56Q753.246 539.124 753.214 539.687Q753.182 540.25 753.093 540.807Q753.004 541.363 752.859 541.908Q752.713 542.453 752.513 542.98C751.044 546.84 748.371 548.717 744.695 550.264C742.445 550.459 740.067 550.309 738.003 549.326Q737.483 549.082 736.991 548.786Q736.499 548.49 736.04 548.145Q735.58 547.801 735.159 547.411Q734.737 547.021 734.357 546.591Q733.977 546.16 733.643 545.693Q733.309 545.226 733.024 544.727Q732.739 544.229 732.507 543.703Q732.275 543.178 732.097 542.632C731.151 539.706 731.374 536.557 732.859 533.848C734.618 530.639 737.387 529.029 740.8 528.038Z"/>
	<path fill="#3367B7" d="M214.33 570.711C229.751 569.854 244.952 575.356 256.852 585.145C268.772 594.952 275.928 609.323 277.385 624.636C278.846 639.978 273.801 656.754 263.875 668.574C253.064 681.448 238.754 689.082 222.051 690.519C206.264 690.754 191.878 687.984 179.322 677.763Q178.158 676.797 177.042 675.776Q175.927 674.755 174.862 673.681Q173.797 672.607 172.785 671.482Q171.774 670.358 170.818 669.186Q169.862 668.014 168.964 666.797Q168.066 665.579 167.229 664.32Q166.391 663.061 165.615 661.763Q164.839 660.464 164.127 659.13Q163.416 657.795 162.769 656.428Q162.123 655.061 161.544 653.664Q160.964 652.266 160.453 650.843Q159.942 649.419 159.501 647.973Q159.06 646.526 158.689 645.06Q158.319 643.593 158.02 642.111Q157.721 640.628 157.494 639.133Q157.267 637.638 157.113 636.133C155.579 620.976 160.034 605.16 169.777 593.373C181.057 579.725 196.926 572.408 214.33 570.711Z"/>
	<path fill="#1E2E51" d="M212.075 583.198C223.842 582.101 235.096 584.419 244.866 591.263C255.578 598.769 262.538 609.708 264.672 622.63C266.832 635.7 263.295 649.786 255.563 660.516C247.63 671.525 235.597 677.016 222.511 679.167Q221.317 679.298 220.119 679.37Q218.92 679.442 217.719 679.455Q216.519 679.469 215.319 679.423Q214.119 679.378 212.923 679.273Q211.726 679.169 210.537 679.006Q209.347 678.843 208.167 678.622Q206.986 678.401 205.818 678.122Q204.65 677.844 203.497 677.508Q202.344 677.173 201.209 676.781Q200.074 676.389 198.96 675.943Q197.845 675.496 196.754 674.995Q195.662 674.494 194.597 673.94Q193.532 673.386 192.495 672.781Q191.458 672.175 190.452 671.52Q189.445 670.864 188.473 670.16Q187.5 669.456 186.563 668.705Q185.638 667.975 184.751 667.2Q183.863 666.424 183.015 665.606Q182.167 664.788 181.36 663.93Q180.553 663.071 179.789 662.173Q179.026 661.275 178.308 660.341Q177.59 659.407 176.918 658.438Q176.247 657.47 175.624 656.469Q175.002 655.469 174.43 654.439Q173.857 653.409 173.336 652.352Q172.815 651.294 172.347 650.213Q171.879 649.131 171.465 648.028Q171.051 646.925 170.692 645.803Q170.333 644.68 170.03 643.542Q169.726 642.403 169.48 641.25Q169.233 640.098 169.043 638.935Q168.854 637.772 168.722 636.601Q168.591 635.388 168.52 634.17Q168.45 632.952 168.439 631.732Q168.429 630.512 168.479 629.293Q168.529 628.074 168.64 626.859Q168.751 625.644 168.921 624.436Q169.092 623.228 169.322 622.03Q169.553 620.832 169.842 619.646Q170.131 618.461 170.479 617.292Q170.827 616.122 171.232 614.972Q171.638 613.821 172.1 612.692Q172.561 611.563 173.079 610.458Q173.596 609.353 174.167 608.275Q174.739 607.197 175.363 606.148Q175.987 605.1 176.662 604.084Q177.338 603.068 178.063 602.087Q178.787 601.105 179.56 600.161C187.993 589.899 198.97 584.512 212.075 583.198Z"/>
	<path fill="#4FBAF2" d="M211.049 588.641C221.991 587.506 232.609 589.383 241.802 595.652Q242.659 596.248 243.485 596.885Q244.311 597.522 245.104 598.199Q245.898 598.876 246.657 599.592Q247.417 600.307 248.14 601.059Q248.863 601.811 249.548 602.598Q250.233 603.385 250.879 604.205Q251.524 605.024 252.128 605.875Q252.733 606.725 253.294 607.605Q253.856 608.484 254.373 609.39Q254.891 610.296 255.363 611.226Q255.835 612.156 256.261 613.109Q256.687 614.061 257.065 615.034Q257.443 616.006 257.773 616.996Q258.102 617.986 258.383 618.99Q258.664 619.995 258.894 621.013Q259.125 622.03 259.305 623.058Q259.491 624.119 259.624 625.188Q259.758 626.257 259.839 627.331Q259.921 628.405 259.95 629.482Q259.979 630.559 259.955 631.635Q259.932 632.712 259.856 633.787Q259.78 634.861 259.652 635.931Q259.524 637.001 259.344 638.063Q259.164 639.125 258.933 640.177Q258.702 641.229 258.419 642.268Q258.137 643.308 257.804 644.332Q257.471 645.357 257.089 646.364Q256.707 647.371 256.276 648.358Q255.846 649.346 255.367 650.311Q254.889 651.276 254.364 652.217Q253.84 653.157 253.27 654.072Q252.7 654.986 252.086 655.871C245.159 665.882 235.369 671.189 223.598 673.418C212.57 674.594 202.011 672.793 192.671 666.526C183.047 660.068 176.444 649.509 174.301 638.17C172.276 627.463 174.923 616.117 181.078 607.17C188.314 596.649 198.668 590.901 211.049 588.641Z"/>
	<path fill="#FEF0FC" d="M215.266 599.429C219.654 599.298 223.806 599.48 227.966 601.023C236.096 604.037 240.64 609.469 244.166 617.091C242.89 618.292 241.707 619.607 240.498 620.876L238.48 624.938C231.77 616.595 226.155 611.265 215.496 608.774L215.266 599.429Z"/>
	<path fill="#5597F0" d="M306.929 286.084C302.642 284.971 298.369 283.707 294.281 281.992C275.469 274.098 259.207 257.315 251.566 238.44Q251.176 237.491 250.81 236.533Q250.444 235.575 250.101 234.609Q249.758 233.642 249.44 232.667Q249.121 231.692 248.826 230.71Q248.531 229.727 248.26 228.738Q247.989 227.749 247.743 226.753Q247.497 225.758 247.275 224.756Q247.053 223.755 246.855 222.748Q246.658 221.742 246.486 220.731Q246.313 219.72 246.165 218.705Q246.018 217.69 245.895 216.672Q245.772 215.653 245.674 214.632Q245.576 213.611 245.504 212.588Q245.431 211.565 245.383 210.541Q245.336 209.516 245.313 208.491Q245.291 207.465 245.293 206.44Q245.296 205.414 245.324 204.389Q245.351 203.363 245.404 202.339Q245.457 201.315 245.535 200.292Q245.613 199.27 245.716 198.249Q245.819 197.229 245.947 196.211Q246.075 195.193 246.228 194.179Q246.381 193.165 246.559 192.155Q246.737 191.145 246.939 190.139Q247.142 189.134 247.369 188.134Q247.596 187.133 247.847 186.139Q248.099 185.145 248.374 184.157Q248.65 183.169 248.95 182.188Q249.25 181.207 249.574 180.234Q249.898 179.261 250.245 178.296Q250.593 177.331 250.964 176.375Q251.335 175.419 251.73 174.472Q252.493 172.696 253.341 170.959Q254.19 169.222 255.122 167.529Q256.054 165.835 257.068 164.189Q258.081 162.543 259.174 160.949Q260.266 159.354 261.436 157.815Q262.605 156.275 263.847 154.795Q265.09 153.314 266.404 151.896Q267.717 150.478 269.098 149.125Q270.479 147.773 271.924 146.489Q273.37 145.205 274.876 143.994Q276.382 142.782 277.945 141.645Q279.509 140.509 281.126 139.45Q282.743 138.39 284.409 137.411Q286.076 136.432 287.789 135.536Q289.501 134.639 291.255 133.827Q293.009 133.015 294.801 132.289Q296.595 131.593 298.421 130.986Q300.246 130.379 302.1 129.862Q303.953 129.345 305.83 128.919Q307.706 128.494 309.601 128.16Q311.496 127.827 313.405 127.587Q315.314 127.346 317.232 127.2Q319.151 127.053 321.074 127.001Q322.998 126.948 324.921 126.99Q326.845 127.031 328.764 127.167Q330.683 127.303 332.594 127.532Q334.504 127.762 336.401 128.084Q338.298 128.407 340.177 128.822Q342.055 129.237 343.912 129.743Q345.768 130.25 347.597 130.847Q349.426 131.443 351.224 132.129Q353.022 132.814 354.784 133.587C376.274 143.135 388.572 157.338 397.007 178.968L365.861 178.96C349.462 179.27 334.753 183.758 323.078 195.783C304.937 214.469 306.789 231.98 306.961 255.895L306.929 286.084Z"/>
	<path fill="#3367B7" d="M306.961 255.895C297.153 253.079 284.997 240.944 280.142 232.074C273.466 219.878 272.391 205.86 276.34 192.607Q276.697 191.407 277.114 190.227Q277.53 189.046 278.004 187.888Q278.478 186.729 279.008 185.596Q279.539 184.462 280.125 183.356Q280.711 182.25 281.351 181.174Q281.992 180.099 282.684 179.056Q283.376 178.013 284.12 177.006Q284.863 175.999 285.655 175.029Q286.447 174.06 287.286 173.131Q288.125 172.202 289.009 171.316Q289.893 170.43 290.819 169.588Q291.746 168.746 292.713 167.952Q293.68 167.157 294.685 166.411Q295.69 165.665 296.731 164.97Q297.772 164.274 298.846 163.631Q299.92 162.988 301.024 162.399C312.394 156.406 326.718 155.143 338.99 158.949C348.686 161.956 360.993 169.799 365.861 178.96C349.462 179.27 334.753 183.758 323.078 195.783C304.937 214.469 306.789 231.98 306.961 255.895Z"/>
	<path fill="#E9EFFB" d="M793.112 675.932C811.446 666.808 829.094 664.177 848.785 670.729C866.516 676.629 880.355 688.826 888.656 705.532C897.402 723.132 897.828 740.205 892.196 758.846C888.749 766.85 884.883 773.523 879.433 780.362C866.509 793.289 854.548 800.333 836.412 803.715C817.628 806.494 802.45 802.059 786.566 792.243C784.539 790.3 781.963 788.663 779.811 786.808C773.738 781.574 769.125 776.088 764.68 769.428C758.795 757.503 755.881 745.383 757.023 732.022C758.762 711.697 769.374 694.421 784.774 681.463C787.511 679.561 790.327 677.763 793.112 675.932Z"/>
	<path fill="#27A66C" d="M765.284 725.024C765.871 722.029 766.845 719.088 767.904 716.229C773.79 700.337 785.494 686.692 801.041 679.702C817.356 672.366 833.926 672.365 850.505 678.76C849.533 679.564 849.448 679.809 848.134 679.655C847.333 679.562 846.625 679.275 845.864 679.022C830.885 674.053 812.578 677.029 798.799 684.063C787.126 690.023 777.891 701.151 772.102 712.74C770.776 715.394 767.849 724.373 765.284 725.024Z"/>
	<path fill="#4EBA63" d="M765.284 725.024C767.849 724.373 770.776 715.394 772.102 712.74C777.891 701.151 787.126 690.023 798.799 684.063C812.578 677.029 830.885 674.053 845.864 679.022C846.625 679.275 847.333 679.562 848.134 679.655C849.448 679.809 849.533 679.564 850.505 678.76C865.846 684.666 877.883 697.162 884.494 712.116C890.693 726.139 890.707 743.419 885.176 757.66Q884.632 759.07 884.019 760.451Q883.406 761.832 882.724 763.181Q882.042 764.53 881.294 765.843Q880.546 767.156 879.734 768.43Q878.921 769.705 878.046 770.937Q877.171 772.169 876.235 773.355Q875.3 774.542 874.306 775.681Q873.313 776.82 872.263 777.907Q871.214 778.995 870.112 780.029Q869.01 781.063 867.858 782.041Q866.705 783.019 865.506 783.938Q864.306 784.857 863.062 785.715Q861.818 786.573 860.533 787.368Q859.248 788.163 857.924 788.892Q856.601 789.622 855.243 790.285Q853.885 790.948 852.495 791.542C836.928 798.379 819.166 799.361 803.263 793.037C787.895 786.927 774.311 774.359 767.779 759.061C763.445 748.909 761.62 735.657 765.284 725.024Z"/>
	<path fill="#27A66C" d="M863.728 744.245C864.629 745.256 865.748 746.183 865.87 747.595C863.641 752.42 858.018 756.888 854.27 760.666C846.898 768.097 838.672 775.572 833.002 784.413C831.256 783.358 829.463 782.423 828.078 780.9C832.028 778.361 860.72 748.363 863.728 744.245Z"/>
	<path fill="#27A66C" d="M864.64 702.634C865.735 703.51 866.636 704.08 867.02 705.504C866.328 710.689 838.955 736.545 833.95 741.825C832.258 740.666 830.564 739.659 829.334 737.984L829.677 737.43C830.898 737.05 832.094 736.583 833.131 735.818C838.381 731.948 861.539 708.148 864.64 702.634Z"/>
	<path fill="#E9EFFB" d="M831.535 728.267C835.571 724.279 857.153 700.342 860.243 699.521C860.707 699.398 861.2 699.449 861.678 699.413C863.216 700.136 863.779 701.252 864.64 702.634C861.539 708.148 838.381 731.948 833.131 735.818C832.094 736.583 830.898 737.05 829.677 737.43C828.496 735.201 826.091 733.209 824.319 731.368Q818.326 725.051 811.986 719.083C808.605 715.9 804.75 712.774 801.831 709.161C800.376 707.359 799.358 705.669 799.63 703.296C800.42 702.016 800.705 701.868 802.04 701.139C803.169 701.151 803.653 701.089 804.633 701.708C808.221 703.977 811.435 707.986 814.398 711.012C820.066 716.803 825.638 722.708 831.535 728.267Z"/>
	<path fill="#E9EFFB" d="M828.078 780.9C819.8 773.305 811.955 765.186 803.958 757.295C799.013 752.418 791.795 746.947 788.282 741.03C788.164 739.73 788.07 739.193 788.834 738.034C789.544 736.957 790.511 736.618 791.689 736.36C796.425 737.875 820.938 765.259 827.76 770.98L828.32 771.444C832.893 767.125 855.455 741.77 858.363 740.696C858.778 740.543 859.242 740.591 859.682 740.538C861.498 741.226 862.527 742.792 863.728 744.245C860.72 748.363 832.028 778.361 828.078 780.9Z"/>
	<path fill="#17253E" d="M756.5 841.245C749.71 841.254 724.28 842.428 719.162 840.292C719.247 832.813 719.088 825.315 719.304 817.84C719.438 813.209 719.956 808.584 719.971 803.952Q719.466 721.409 719.939 638.867C720.028 632.72 719.547 626.69 719.401 620.561C719.199 612.006 719.422 603.405 719.484 594.847C719.52 589.868 719.301 584.745 719.799 579.792C721.184 590.358 719.803 601.343 720.38 611.985L720.55 612.59C727.532 618.531 733.709 626.027 740.108 632.617Q754.562 647.295 768.562 662.405C774.172 668.446 780.319 674.495 784.774 681.463C769.374 694.421 758.762 711.697 757.023 732.022C755.881 745.383 758.795 757.503 764.68 769.428C764.852 775.579 771.192 783.24 775.493 787.34Q776.634 788.421 777.878 789.381C782.716 794.437 789.161 798.146 795.005 801.924C795.008 814.738 794.864 827.575 795.126 840.386L795.501 841.136C782.987 841.682 770.28 841.25 757.745 841.245L757.745 847.5L874.274 847.504L907.791 847.44C915.288 847.481 922.848 847.812 930.337 847.548C932.353 847.477 934.505 847.281 936.378 846.486C937.741 845.908 938.368 845.262 938.874 843.897C938.622 842.462 938.019 841.765 937.118 840.684L936.764 840.268C937.676 841.035 938.258 841.785 938.763 842.857C939.42 844.25 939.298 845.132 938.745 846.519C937.535 847.555 936.514 847.884 934.957 848.064C928.974 848.754 922.453 848.236 916.407 848.24L879.273 848.247L757.123 848.229C757.157 869.963 755.235 888.409 739.058 904.748C727.532 916.39 711.916 921.922 695.745 921.969L433.895 921.973L358.92 921.955C345.127 921.949 330.038 923.064 316.404 920.893Q315.364 920.735 314.332 920.535Q313.299 920.335 312.276 920.093Q311.252 919.852 310.239 919.569Q309.227 919.286 308.226 918.963Q307.225 918.64 306.238 918.276Q305.252 917.912 304.28 917.509Q303.309 917.106 302.355 916.664Q301.401 916.222 300.465 915.742Q299.529 915.261 298.614 914.744Q297.699 914.226 296.805 913.672Q295.911 913.118 295.041 912.528Q294.17 911.938 293.324 911.313Q292.478 910.689 291.658 910.03Q290.838 909.372 290.045 908.681Q289.252 907.99 288.488 907.268Q287.723 906.546 286.989 905.793C269.68 888.382 270.964 870.676 271.04 848.035C261.469 848.416 251.858 848.248 242.278 848.248C235.47 848.249 228.384 848.7 221.627 847.833C225.553 846.676 258.335 847.565 265.304 847.48C276.963 847.338 288.661 846.544 300.322 846.504C302.219 846.497 304.188 846.581 306.037 847.018C306.343 847.09 307.478 847.393 307.665 847.5C307.867 847.616 313.34 863.828 315.837 867.664C322.762 878.305 334.827 886.76 347.386 889.107C354.657 890.465 369.573 889.518 377.518 889.518L443.017 889.516L594.464 889.493C620.207 889.492 646.119 890.17 671.837 889.452C676.997 889.308 681.474 888.739 686.34 886.955C715.044 876.433 716.65 848.85 719.741 846.767C720.491 847.168 721.146 847.528 722.004 847.642C726.822 848.283 732.894 847.38 737.825 847.254C744.089 847.094 750.254 847.375 756.506 847.504L756.5 841.245Z"/>
	<path fill="#177B4E" d="M720.55 612.59C727.532 618.531 733.709 626.027 740.108 632.617Q754.562 647.295 768.562 662.405C774.172 668.446 780.319 674.495 784.774 681.463C769.374 694.421 758.762 711.697 757.023 732.022C755.881 745.383 758.795 757.503 764.68 769.428C764.852 775.579 771.192 783.24 775.493 787.34Q776.634 788.421 777.878 789.381C782.716 794.437 789.161 798.146 795.005 801.924C795.008 814.738 794.864 827.575 795.126 840.386L720.523 840.328L720.55 612.59Z"/>
	<path fill="#A1BBF0" d="M752.706 269.916Q754.673 269.984 756.638 270.1Q758.603 270.217 760.564 270.382Q762.525 270.546 764.482 270.759Q766.438 270.972 768.389 271.233Q770.34 271.494 772.284 271.803Q774.228 272.112 776.164 272.468Q778.099 272.825 780.026 273.229Q781.952 273.633 783.868 274.084Q785.783 274.536 787.688 275.034Q789.592 275.532 791.483 276.077Q793.374 276.622 795.251 277.214Q797.129 277.805 798.991 278.442Q800.853 279.08 802.699 279.763Q804.545 280.446 806.374 281.174Q808.202 281.902 810.012 282.675Q811.822 283.448 813.613 284.265Q815.403 285.082 817.173 285.943Q818.943 286.804 820.691 287.708Q822.44 288.613 824.165 289.56Q825.89 290.507 827.592 291.496Q829.294 292.485 830.97 293.516Q832.647 294.547 834.298 295.618Q835.949 296.69 837.573 297.802Q839.197 298.914 840.793 300.065Q842.39 301.217 843.957 302.407Q845.524 303.598 847.062 304.826Q848.6 306.055 850.107 307.321Q851.614 308.587 853.089 309.89Q854.564 311.193 856.007 312.531Q857.45 313.87 858.86 315.244Q860.269 316.618 861.644 318.026Q863.02 319.434 864.36 320.875Q865.698 322.32 867 323.798Q868.303 325.275 869.569 326.784Q870.835 328.293 872.063 329.832Q873.292 331.372 874.483 332.94Q875.673 334.509 876.825 336.107Q877.977 337.705 879.09 339.33Q880.203 340.955 881.275 342.607Q882.348 344.259 883.379 345.937Q884.411 347.614 885.402 349.317Q886.392 351.019 887.341 352.745Q888.289 354.471 889.195 356.22Q890.102 357.969 890.965 359.739Q891.828 361.51 892.647 363.3Q893.467 365.091 894.242 366.902Q895.018 368.712 895.749 370.541Q896.48 372.37 897.166 374.216Q897.852 376.062 898.493 377.925Q899.134 379.787 899.729 381.665Q900.324 383.542 900.873 385.434Q901.422 387.325 901.925 389.23Q902.427 391.134 902.883 393.05Q903.339 394.966 903.748 396.893Q904.157 398.82 904.519 400.756Q904.88 402.692 905.195 404.636Q905.509 406.58 905.776 408.532Q906.042 410.483 906.261 412.441Q906.48 414.398 906.651 416.36Q906.822 418.322 906.945 420.288Q907.068 422.254 907.143 424.222Q907.218 426.19 907.245 428.159Q907.271 430.129 907.25 432.098Q907.229 434.068 907.159 436.036Q907.103 438.053 906.996 440.068Q906.89 442.083 906.733 444.095Q906.576 446.107 906.368 448.114Q906.16 450.122 905.902 452.123Q905.645 454.125 905.336 456.119Q905.028 458.113 904.67 460.099Q904.312 462.085 903.905 464.062Q903.497 466.038 903.039 468.003Q902.582 469.969 902.076 471.922Q901.569 473.876 901.014 475.816Q900.458 477.756 899.855 479.681Q899.251 481.607 898.599 483.516Q897.947 485.426 897.247 487.319Q896.547 489.212 895.8 491.086Q895.053 492.961 894.259 494.816Q893.465 496.672 892.625 498.506Q891.785 500.341 890.899 502.154Q890.013 503.967 889.082 505.757Q888.15 507.548 887.175 509.314Q886.199 511.08 885.179 512.822Q884.159 514.563 883.095 516.278Q882.032 517.993 880.926 519.681Q879.82 521.369 878.672 523.028Q877.524 524.688 876.335 526.318Q875.145 527.948 873.915 529.548Q872.685 531.148 871.416 532.717Q870.146 534.285 868.837 535.821Q867.529 537.357 866.182 538.86Q864.835 540.363 863.451 541.831Q862.067 543.3 860.646 544.733Q859.226 546.167 857.77 547.564Q856.314 548.961 854.823 550.321Q852.13 552.789 849.328 555.132Q846.525 557.475 843.62 559.69Q840.714 561.904 837.712 563.984Q834.709 566.064 831.615 568.006Q828.521 569.949 825.343 571.749Q822.164 573.549 818.908 575.203Q815.651 576.858 812.322 578.363Q808.994 579.868 805.601 581.221C803.018 582.262 799.263 584.201 796.576 584.242C796.4 584.244 796.225 584.211 796.05 584.195L795.639 582.11C795.891 571.875 795.657 561.578 795.643 551.338C795.613 530.646 797.069 512.944 782.218 496.327C773.018 486.034 761.478 481.785 747.959 480.951C747.943 476.227 747.141 444.715 748.303 442.528C748.524 442.112 748.921 441.818 749.23 441.463L748.8 438.897C747.516 436.07 744.081 433.317 744.093 430.011C744.103 427.284 747.606 424.129 749.3 422.185C746.8 416.921 745.06 411.661 743.651 406.011C740.239 405.716 736.941 405.129 733.579 404.482C732.905 402.624 732.047 400.93 731.135 399.179C729.146 395.985 731.398 382.874 731.846 378.797C736.62 378.367 741.397 378.498 746.183 378.558C746.815 376.138 747.654 373.727 748.392 371.334C747.69 365.872 747.984 359.588 748.448 354.101C748.066 353.328 747.488 352.373 747.303 351.539C746.945 349.924 747.524 349.237 748.219 347.884C747.262 338.564 748.032 328.564 748.023 319.149C748.007 302.975 747.592 286.716 748.067 270.553C749.233 269.906 751.34 270.012 752.706 269.916Z"/>
	<path fill="#1E2E51" d="M865.959 380.576C870.946 388.177 870.611 396.765 870.496 405.551C866.26 405.732 861.634 405.545 857.466 406.212L855.926 405.989C854.749 404.911 855.063 403.516 854.953 401.966Q861.251 401.828 867.47 400.826C868.145 394.068 867.302 387.196 865.959 380.576Z"/>
	<path fill="#1E2E51" d="M835.676 452.301C836.686 454.758 837.641 457.259 838.762 459.667C832.116 464.16 825.161 466.678 817.62 469.315L814.277 465.449C818.94 464.197 832.943 459.891 835.341 456.093C836.183 454.76 835.595 453.898 835.195 452.527L835.676 452.301Z"/>
	<path fill="#1E2E51" d="M858.367 426.208C859.996 428.204 861.61 430.138 862.911 432.372C860.291 438.134 855.228 448.13 849.476 451.174L848.64 451.096L848.403 449.404C848.224 449.374 848.042 449.357 847.865 449.315C845.444 448.74 842.915 446.52 841.145 444.818L841.429 444.069L847.343 447.161C851.156 443.695 854.782 439.055 857.159 434.486C858.77 431.39 859.468 429.558 858.367 426.208Z"/>
	<path fill="#F9AE59" d="M768.754 334.587C774.971 330.361 782.252 327.505 789.34 325.074L789.759 325.656C791.232 327.736 796.512 338.55 796.64 338.655C797.192 339.111 798.401 339.329 799.087 339.449C803.565 340.233 808.178 340.234 812.608 341.299C814.777 337.749 817.031 332.943 820.585 330.68C823.611 329.997 828.138 332.732 830.684 334.339C835.007 337.067 848.758 347.239 850.417 351.327C851.386 352.973 852.253 354.59 853.005 356.348C850.795 359.985 848.343 363.574 845.575 366.811C848.16 370.502 850.196 373.906 851.827 378.141C855.864 376.896 860.307 375.728 864.281 377.74C865.039 378.672 865.493 379.469 865.959 380.576C867.302 387.196 868.145 394.068 867.47 400.826Q861.251 401.828 854.953 401.966C855.063 403.516 854.749 404.911 855.926 405.989L857.466 406.212C857.166 411.272 856.049 416.056 854.476 420.863L858.367 426.208C859.468 429.558 858.77 431.39 857.159 434.486C854.782 439.055 851.156 443.695 847.343 447.161L841.429 444.069L841.145 444.818C838.719 445.867 836.508 446.583 835.053 448.896C834.843 450.227 835.217 451.086 835.676 452.301L835.195 452.527C835.595 453.898 836.183 454.76 835.341 456.093C832.943 459.891 818.94 464.197 814.277 465.449C813.326 463.645 812.424 461.889 811.161 460.274C805.63 460.652 800.145 461.079 794.597 460.861C793.905 463.403 793.138 465.861 792.232 468.336Q791.244 468.195 790.258 468.036C782.54 466.793 773.849 464.92 769.015 458.269C767.092 456.212 767.249 452.392 767.227 449.767C765.621 450.855 764.14 452.134 762.631 453.353Q760.687 452.21 758.862 450.884Q757.038 449.558 755.351 448.061Q753.664 446.564 752.13 444.911Q750.596 443.257 749.23 441.463L748.8 438.897C747.516 436.07 744.081 433.317 744.093 430.011C744.103 427.284 747.606 424.129 749.3 422.185C746.8 416.921 745.06 411.661 743.651 406.011C740.239 405.716 736.941 405.129 733.579 404.482C732.905 402.624 732.047 400.93 731.135 399.179C729.146 395.985 731.398 382.874 731.846 378.797C736.62 378.367 741.397 378.498 746.183 378.558C746.815 376.138 747.654 373.727 748.392 371.334C747.69 365.872 747.984 359.588 748.448 354.101C748.066 353.328 747.488 352.373 747.303 351.539C746.945 349.924 747.524 349.237 748.219 347.884C752.368 343.325 756.382 338.792 761.907 335.853C766.901 338.987 769.597 343.663 773.67 347.74C772.215 343.266 770.523 338.942 768.754 334.587Z"/>
	<path fill="#1E2E51" d="M854.953 401.966C855.063 403.516 854.749 404.911 855.926 405.989L857.466 406.212C857.166 411.272 856.049 416.056 854.476 420.863C853.991 420.376 853.511 419.889 853.064 419.366C850.885 416.813 853.73 410.717 854.295 407.709C854.648 405.828 854.788 403.873 854.953 401.966Z"/>
	<path fill="#1E2E51" d="M837.587 440.257C838.765 441.625 840.115 442.833 841.429 444.069L841.145 444.818C838.719 445.867 836.508 446.583 835.053 448.896C834.843 450.227 835.217 451.086 835.676 452.301L835.195 452.527C833.823 449.819 832.613 447.076 831.43 444.281C833.526 443.018 835.547 441.608 837.587 440.257Z"/>
	<path fill="#1E2E51" d="M731.135 399.179C734.448 399.874 741.195 399.531 743.166 402.247C743.375 403.507 743.542 404.737 743.651 406.011C740.239 405.716 736.941 405.129 733.579 404.482C732.905 402.624 732.047 400.93 731.135 399.179Z"/>
	<path fill="#A1BBF0" d="M748.448 354.101L755.53 361.856C752.952 364.912 750.43 367.88 748.392 371.334C747.69 365.872 747.984 359.588 748.448 354.101Z"/>
	<path fill="#1E2E51" d="M842.411 363.58C844.91 359.409 847.849 355.47 850.417 351.327C851.386 352.973 852.253 354.59 853.005 356.348C850.795 359.985 848.343 363.574 845.575 366.811L842.411 363.58Z"/>
	<path fill="#1E2E51" d="M748.8 438.897C752.153 442.092 755.448 445.56 759.247 448.222C761.248 446.484 763.211 444.607 765.398 443.108L769.374 447.245L767.227 449.767C765.621 450.855 764.14 452.134 762.631 453.353Q760.687 452.21 758.862 450.884Q757.038 449.558 755.351 448.061Q753.664 446.564 752.13 444.911Q750.596 443.257 749.23 441.463L748.8 438.897Z"/>
	<path fill="#1E2E51" d="M791.744 455.859C797.54 456.472 802.854 456.907 808.548 455.336L811.161 460.274C805.63 460.652 800.145 461.079 794.597 460.861C793.905 463.403 793.138 465.861 792.232 468.336Q791.244 468.195 790.258 468.036C782.54 466.793 773.849 464.92 769.015 458.269C775.398 460.864 781.791 463.052 788.498 464.649Q790.241 460.298 791.744 455.859Z"/>
	<path fill="#1E2E51" d="M772.348 415.059Q771.956 414.402 771.596 413.728Q771.236 413.054 770.908 412.363Q770.581 411.672 770.286 410.967Q769.991 410.261 769.731 409.542Q769.47 408.824 769.243 408.093Q769.017 407.363 768.825 406.623Q768.634 405.883 768.478 405.134Q768.321 404.386 768.201 403.631Q768.08 402.876 767.996 402.116Q767.911 401.356 767.863 400.593Q767.814 399.83 767.802 399.066Q767.79 398.301 767.814 397.537Q767.838 396.773 767.898 396.011Q767.959 395.249 768.055 394.49Q768.152 393.732 768.284 392.979Q768.416 392.226 768.584 391.48C770.458 383.164 776.185 375.872 783.329 371.361C790.242 366.997 798.313 365.295 806.359 367.16Q807.169 367.355 807.969 367.59Q808.768 367.824 809.555 368.097Q810.343 368.371 811.115 368.682Q811.888 368.994 812.645 369.343Q813.402 369.691 814.14 370.077Q814.879 370.463 815.598 370.884Q816.317 371.305 817.014 371.761Q817.712 372.217 818.386 372.706Q819.06 373.196 819.71 373.718Q820.36 374.24 820.983 374.793Q821.606 375.346 822.202 375.928Q822.797 376.511 823.363 377.123Q823.929 377.734 824.465 378.372Q825.001 379.011 825.504 379.674Q826.008 380.338 826.479 381.026Q826.95 381.713 827.386 382.423C819.899 375.665 810.853 370.808 800.47 371.286C792.036 371.675 784.368 375.906 778.819 382.145C772.919 388.779 769.951 396.865 770.545 405.757C770.703 408.125 771.138 410.272 771.72 412.568L772.348 415.059Z"/>
	<path fill="#A1BBF0" d="M772.348 415.059L771.72 412.568C771.138 410.272 770.703 408.125 770.545 405.757C769.951 396.865 772.919 388.779 778.819 382.145C784.368 375.906 792.036 371.675 800.47 371.286C810.853 370.808 819.899 375.665 827.386 382.423C832.179 388.231 834.788 395.449 834.132 403.038C833.426 411.212 828.452 419.643 822.144 424.789C815.11 430.526 804.808 433.379 795.828 432.283C787.631 431.283 780.641 427.06 775.645 420.526C774.359 418.843 773.182 417.008 772.348 415.059Z"/>
	<path fill="#E9EFFB" d="M607.034 198.497L644.072 198.499C653.092 198.474 664.037 197.287 672.805 199.525C678.494 200.978 684.003 204.33 688.224 208.374C696.749 216.542 698.499 225.427 698.731 236.812C699.478 273.522 698.467 310.297 698.553 347.019L698.636 636.014L698.691 765.159L699.015 811.802C699.061 820.156 699.616 828.913 698.765 837.22C697.835 846.297 693.354 853.888 687.153 860.357C680.693 866.299 673.077 869.811 664.351 870.71C657.863 871.378 651.123 871.037 644.603 871.022L612.914 871.036L500.657 871.005L406.975 870.972L378.156 871.04C372.153 871.053 365.986 871.328 360.011 870.67Q358.673 870.525 357.349 870.284Q356.025 870.042 354.721 869.705Q353.418 869.368 352.143 868.937Q350.868 868.506 349.628 867.984Q348.387 867.461 347.188 866.85Q345.989 866.239 344.837 865.542Q343.686 864.845 342.588 864.066Q341.49 863.288 340.452 862.431C333.522 856.67 328.308 847.644 327.514 838.615C326.531 827.443 327.175 815.859 327.215 804.641L327.297 746.386L327.111 542.821L327.112 333.702L326.983 266.535C326.961 255.24 326.14 243.269 327.144 232.047C327.739 225.384 331.337 217.483 335.68 212.42C342.951 203.943 352.939 199.591 363.92 198.727L417.562 198.592C417.462 208.201 416.644 217.985 424.004 225.461C429.565 231.11 436.59 232.96 444.273 233.046C476.026 233.4 507.825 233.037 539.584 233.042L569.053 233.042C574.646 233.04 580.757 233.442 586.276 232.579C591.092 231.826 596.276 229.352 599.716 225.87C607.274 218.22 607.079 208.414 607.034 198.497Z"/>
	<path fill="#0140DB" d="M659.494 254.1C662.507 253.925 668.424 252.945 671.008 254.437C671.703 254.839 671.664 255.753 671.84 256.479C668.745 256.626 663.1 257.55 660.409 256.074C659.677 255.673 659.704 254.847 659.494 254.1Z"/>
	<path fill="#0140DB" d="M373.615 253.708C376.48 253.584 382.526 252.681 384.84 254.275C385.507 254.734 385.302 255.423 385.357 256.155C382.052 256.356 376.25 257.483 373.619 255.254L373.615 253.708Z"/>
	<path fill="#0140DB" d="M355.794 253.606C358.719 253.526 363.957 252.838 366.479 254.251C366.689 255.574 366.553 255.343 365.849 256.367C363.156 256.47 359.436 257.037 356.871 256.377C355.789 256.098 355.722 255.929 355.2 255.021L355.794 253.606Z"/>
	<path fill="#0140DB" d="M655.547 258.426C656.059 258.819 656.467 259.211 656.775 259.797C658.36 262.816 657.284 267.693 656.634 270.918L655.032 270.189C654.691 269.574 654.665 269.591 654.435 268.793C653.663 266.11 654.098 260.843 655.547 258.426Z"/>
	<path fill="#0140DB" d="M639.906 254.084C643.117 253.856 648.475 253.251 651.51 254.427C652.43 254.784 652.11 254.556 652.568 255.495L651.939 256.621L645.211 256.815C643.168 256.882 641.415 257.05 639.852 255.587L639.906 254.084Z"/>
	<path fill="#0140DB" d="M368.797 239.123L370.719 239.43C371.077 239.868 371.142 239.893 371.387 240.504C372.448 243.154 371.867 248.529 370.923 251.197L369.689 251.052C367.49 248.53 368.622 242.395 368.797 239.123Z"/>
	<path fill="#0140DB" d="M654.781 239.115C656.053 239.525 656.717 239.472 657.284 240.791C658.427 243.45 657.578 248.87 656.753 251.575C656.04 251.506 655.401 251.698 654.977 251.029C653.362 248.483 654.388 242.047 654.781 239.115Z"/>
	<path fill="#3367B7" d="M369.289 257.11C370.013 257.306 370.947 257.309 371.365 257.993C373.019 260.703 371.765 266.938 371.017 269.935C370.34 269.682 369.575 269.615 369.197 268.948C367.542 266.038 368.807 260.375 369.289 257.11Z"/>
	<path fill="#17253E" d="M492.682 266.254L548.357 266.113C553.614 266.101 564.57 265.313 569.25 266.108C570.624 266.341 570.809 266.6 571.65 267.601L571.384 268.402C567.557 270.882 539.345 269.696 533.25 269.719L478.081 269.915C473.011 269.937 463.339 270.858 458.722 270.032C457.078 269.738 455.899 269.14 454.926 267.788L455.299 267.194C459.661 265.145 486.11 266.259 492.682 266.254Z"/>
	<path fill="#A1BBF0" d="M495.047 812.023C501.681 811.686 518.811 810.94 524.505 812.819C526.198 813.379 527.637 814.221 528.4 815.911C530.096 819.666 530.029 837.614 528.298 841.426C527.391 843.423 526.013 844.264 524.046 845.035C515.792 845.512 507.031 845.681 498.765 845.24C496.31 845.109 491.782 844.538 490.288 842.218C488.263 839.075 488.603 823.933 489.346 819.904C490.042 816.13 491.939 814.094 495.047 812.023Z"/>
	<path fill="#A1BBF0" d="M365.237 812.724Q379.235 812.467 393.236 812.48C398.359 812.462 403.762 812.074 408.836 812.648C410.672 812.855 414.54 813.466 415.728 815.121C418.152 818.497 416.71 835.439 416.417 840.102C415.828 841.074 415.239 842.094 414.491 842.954C412.671 845.045 410.641 845.207 408.005 845.443C391.819 845.504 375.581 845.837 359.401 845.469C359.289 845.383 359.174 845.3 359.064 845.211C355.693 842.474 354.986 840.056 354.527 835.785C353.902 829.967 353.268 819.8 357.258 815.254C359.485 812.717 362.135 812.802 365.237 812.724Z"/>
	<path fill="#A1BBF0" d="M610.202 811.659C628.393 811.07 646.75 811.556 664.965 811.445C666.749 812.751 668.067 814.113 669.466 815.822C669.425 822.336 671.127 836.519 668.142 841.811C667.074 843.704 665.644 844.485 663.626 845.09Q663.041 845.115 662.456 845.132C652.027 845.454 641.513 845.198 631.076 845.189C624.862 845.184 618.076 845.746 611.954 844.893C610.042 844.626 607.089 844.059 605.747 842.575C602.137 838.579 603.475 821.873 604.089 816.358C605.85 814.066 607.536 812.801 610.202 811.659Z"/>
	<path fill="#3367B7" d="M357.873 301.614C365.015 301.264 372.346 301.623 379.505 301.658L419.572 301.744L558.774 301.724L630.077 301.709C638.649 301.689 662.051 300.525 668.923 302.488C673.84 303.893 678.36 307.53 680.73 312.06C682.601 315.635 682.899 319.37 682.996 323.32C683.633 349.338 682.956 375.554 682.959 401.588L683.001 563.838L683.05 707.074C683.015 719.422 684.53 758.634 681.484 767.832C679.039 775.216 674.528 778.814 667.926 782.196Q667.436 782.374 666.94 782.536C657.996 785.418 622.854 783.878 611.84 783.857L537.566 783.859L422.743 783.915C403.214 783.93 383.524 784.519 364.014 783.922C360.208 783.805 356.408 783.43 352.998 781.584C348.746 779.284 344.786 774.539 343.546 769.835C341.734 762.958 343.004 743.703 343.015 735.424L343.067 655.153L343.114 421.147C343.15 388.144 342.329 355.001 342.955 322.016C343.034 317.849 343.305 313.478 345.516 309.826C348.302 305.224 352.784 302.818 357.873 301.614Z"/>
	<path fill="#5597F0" d="M481.192 567.034C488.439 566.772 527.786 565.929 531.246 567.983C532.077 569.156 532.357 569.461 532.223 570.973C532.085 572.525 530.991 573.533 529.893 574.477C523.533 574.816 482.875 575.972 480.17 573.654C479.24 572.857 478.983 571.904 479.058 570.703C479.158 569.105 480.149 568.103 481.192 567.034Z"/>
	<path fill="#5597F0" d="M483.952 680.234C491.736 680.126 526.343 679.024 531.305 681.527C532.087 681.922 532.222 682.148 532.397 683.025C532.626 684.179 532.627 685.525 531.888 686.505C530.961 687.733 530.024 687.91 528.625 688.121C521.641 688.142 486.531 688.991 481.983 687.423C480.427 686.886 479.721 686.181 478.976 684.753C479.051 683.344 479.289 682.712 480.047 681.525C481.399 680.525 482.344 680.401 483.952 680.234Z"/>
	<path fill="#5597F0" d="M480.463 460.039C486.289 459.607 528.421 459.04 531.203 460.503C532.077 461.565 532.636 462.042 532.529 463.53C532.415 465.129 531.358 466.299 530.353 467.438C523.78 467.814 482.992 468.763 480.07 466.716C479.009 465.972 478.621 464.988 478.612 463.717C478.601 462.098 479.478 461.164 480.463 460.039Z"/>
	<path fill="#5597F0" d="M481.973 346.221Q498.1 346.062 514.227 346.091C518.867 346.072 524.281 345.3 528.807 346.27C530.405 346.613 531.432 347.135 532.361 348.535C532.594 349.857 532.528 351.349 531.704 352.496C530.766 353.8 530.027 353.849 528.557 354.274C521.378 354.332 484.086 355.356 480.076 353.942C478.729 353.467 478.396 352.897 477.727 351.692C477.64 350.38 477.877 349.17 478.656 348.079C479.608 346.746 480.481 346.564 481.973 346.221Z"/>
	<path fill="#1E2E51" d="M448.277 695.199C452.602 699.562 454.818 707.109 454.823 713.086Q454.827 713.929 454.789 714.771Q454.751 715.613 454.672 716.452Q454.592 717.291 454.471 718.125Q454.35 718.959 454.188 719.786Q454.026 720.613 453.822 721.431Q453.619 722.249 453.376 723.055Q453.132 723.862 452.849 724.656Q452.566 725.45 452.244 726.229Q451.921 727.007 451.561 727.769Q451.2 728.531 450.803 729.274Q450.405 730.017 449.971 730.739Q449.536 731.462 449.067 732.161Q448.597 732.861 448.094 733.537Q447.59 734.213 447.053 734.863Q446.517 735.512 445.949 736.135Q445.38 736.757 444.782 737.351Q444.119 738.003 443.425 738.622Q442.73 739.241 442.006 739.825Q441.282 740.409 440.53 740.957Q439.779 741.505 439.001 742.015Q438.223 742.525 437.421 742.996Q436.619 743.468 435.795 743.899Q434.971 744.33 434.127 744.721Q433.282 745.111 432.42 745.459Q431.557 745.808 430.679 746.113Q429.8 746.419 428.908 746.681Q428.015 746.943 427.111 747.16Q426.207 747.378 425.293 747.551Q424.379 747.724 423.457 747.852Q422.536 747.98 421.61 748.063Q420.683 748.145 419.754 748.182Q418.824 748.219 417.894 748.21C407.964 748.09 398.887 743.877 392.009 736.762C390.823 735.536 389.846 734.311 389.173 732.74C389.276 732.188 389.327 731.662 389.573 731.153C391.162 732.521 392.869 733.732 394.627 734.871C402.924 740.246 412.893 742.208 422.566 740.018Q423.416 739.823 424.255 739.587Q425.094 739.35 425.92 739.073Q426.746 738.795 427.558 738.478Q428.37 738.16 429.165 737.802Q429.96 737.445 430.737 737.049Q431.513 736.653 432.269 736.219Q433.025 735.785 433.759 735.315Q434.493 734.844 435.203 734.338Q435.912 733.832 436.596 733.292Q437.28 732.751 437.937 732.178Q438.593 731.604 439.221 731Q439.849 730.395 440.446 729.759Q441.043 729.124 441.608 728.46Q442.173 727.797 442.704 727.106Q443.236 726.415 443.733 725.699Q444.23 724.983 444.691 724.243C450.361 715.084 450.605 705.437 448.277 695.199Z"/>
	<path fill="#1E2E51" d="M448.329 585.568L448.928 585.482C453.726 591.101 456.199 600.032 455.589 607.296C454.747 617.321 449.712 626.268 441.999 632.664C434.414 638.954 425.169 641.568 415.39 640.664C407.322 639.918 397.765 634.84 392.643 628.598C391.561 627.279 390.148 625.493 390.196 623.702C392.251 625.345 394.321 626.902 396.59 628.244Q397.368 628.71 398.168 629.136Q398.968 629.563 399.788 629.949Q400.608 630.335 401.447 630.68Q402.285 631.024 403.14 631.326Q403.995 631.629 404.863 631.888Q405.732 632.147 406.613 632.363Q407.493 632.578 408.384 632.75Q409.274 632.921 410.171 633.048Q411.069 633.175 411.972 633.256Q412.875 633.338 413.781 633.375Q414.687 633.411 415.593 633.403Q416.5 633.394 417.405 633.34Q418.31 633.287 419.211 633.188Q420.112 633.089 421.007 632.945Q421.902 632.801 422.789 632.613Q423.676 632.424 424.552 632.192Q425.398 631.965 426.232 631.696Q427.066 631.428 427.885 631.117Q428.705 630.807 429.508 630.456Q430.311 630.106 431.095 629.715Q431.879 629.325 432.643 628.895Q433.407 628.466 434.148 627.999Q434.889 627.532 435.607 627.029Q436.324 626.526 437.015 625.987Q437.706 625.448 438.369 624.876Q439.032 624.303 439.666 623.698Q440.299 623.093 440.902 622.457Q441.505 621.821 442.075 621.156Q442.645 620.49 443.181 619.797Q443.717 619.104 444.218 618.385Q444.718 617.667 445.182 616.923Q445.647 616.18 446.073 615.415C451.563 605.7 451.242 596.012 448.329 585.568Z"/>
	<path fill="#5597F0" d="M480.215 402.553C494.984 401.771 510.08 402.36 524.89 402.373C537.381 402.385 550.305 401.734 562.747 402.546C564.403 402.654 565.838 402.838 567.352 403.541C567.863 404.201 568.278 404.496 568.36 405.364C568.55 407.361 567.735 408.557 566.452 409.973C549.348 410.521 532.129 410.176 515.009 410.196C504.742 410.208 494.054 410.891 483.841 410.164C482.435 410.064 480.614 409.964 479.466 409.027C478.443 408.191 478.078 407.293 478.123 405.983C478.173 404.513 479.259 403.524 480.215 402.553Z"/>
	<path fill="#5597F0" d="M482.145 737.094C499.558 736.433 517.193 736.934 534.63 736.905C544.124 736.89 556.257 735.986 565.373 737.062C566.629 737.211 567.235 737.572 568.174 738.393C568.536 739.237 568.852 739.601 568.714 740.55C568.405 742.671 567.408 743.464 565.766 744.619C560.44 745.188 554.907 744.918 549.549 744.918L523.252 744.904C510.865 744.9 496.264 745.847 484.221 744.857C482.71 744.733 481.714 744.462 480.487 743.52C479.864 742.379 479.307 741.357 479.682 739.998C480.125 738.393 480.915 738.017 482.145 737.094Z"/>
	<path fill="#5597F0" d="M481.121 514.069C498.232 513.536 515.503 513.971 532.631 513.952C542.763 513.941 553.606 513.109 563.636 514.027C565.187 514.169 566.093 514.41 567.354 515.327C567.864 516.107 568.253 516.659 568.265 517.634C568.292 519.705 567.27 520.46 565.88 521.639C553.684 522.745 540.8 521.947 528.507 521.958C514.088 521.971 499.334 522.657 484.964 521.907C483.205 521.815 481.646 521.671 480.08 520.808C479.194 519.669 478.777 519.24 478.897 517.694C479.026 516.037 479.969 515.127 481.121 514.069Z"/>
	<path fill="#5597F0" d="M481.65 624.167C498.668 623.523 515.912 624.068 532.954 624.088C543.312 624.1 554.48 623.216 564.71 624.367C565.987 624.511 566.706 624.771 567.703 625.567C568.355 626.787 568.716 627.311 568.407 628.757C568.078 630.296 567.171 631.049 566.035 631.981C549.323 632.705 532.324 632.101 515.579 632.115C505.64 632.123 492.73 632.997 483.144 631.945C481.769 631.794 481.002 631.362 479.926 630.521C479.213 629.39 479.022 628.618 479.247 627.266C479.495 625.772 480.546 625.041 481.65 624.167Z"/>
	<path fill="#1E2E51" d="M444.435 343.671C445.864 344.142 446.549 345.065 447.221 346.401C452.864 357.62 450.19 372.213 446.12 383.425C441.284 396.747 433.134 410.316 424.804 421.788C421.976 417.971 410.222 403.517 410.204 399.952C410.202 399.432 410.449 399.1 410.673 398.633Q414.232 403.628 417.993 408.472C424.009 401.744 429.36 393.371 434.026 385.642C441.856 372.669 448.177 358.973 444.435 343.671Z"/>
	<path fill="#5597F0" d="M558.333 460.003C567.103 459.463 655.268 459.313 656.687 460.41C657.664 461.165 658.228 462.052 658.254 463.315C658.287 464.889 657.393 466.139 656.502 467.337C646.592 468.501 631.857 467.583 621.501 467.569C602.356 467.543 583.051 468.053 563.922 467.46C562.325 467.411 559.647 467.485 558.283 466.625C557.264 465.983 556.769 465.148 556.671 463.944C556.542 462.355 557.444 461.19 558.333 460.003Z"/>
	<path fill="#5597F0" d="M559.253 680.591Q559.961 680.555 560.67 680.53C579.615 679.981 598.72 680.389 617.676 680.327C629.813 680.288 642.715 679.345 654.781 680.445C656.263 680.58 657.108 680.9 658.219 681.933C658.486 682.784 658.735 683.15 658.533 684.057C658.081 686.085 657.016 686.91 655.383 687.97C637.055 688.556 618.589 688.066 600.243 688.168C587.612 688.239 574.402 689.159 561.844 688.327C560.481 688.237 558.739 688.201 557.675 687.203C556.738 686.325 556.35 685.499 556.523 684.204C556.742 682.563 558.073 681.579 559.253 680.591Z"/>
	<path fill="#5597F0" d="M558.722 567.051C576.581 566.216 594.772 566.96 612.664 566.958C626.499 566.957 640.875 566.091 654.651 566.951C655.767 567.021 656.718 567.106 657.558 567.922C658.471 568.808 658.879 569.707 658.752 570.997C658.607 572.477 657.524 573.521 656.534 574.502C642.329 575.858 623.188 574.883 608.571 574.893L578.806 574.901C573.272 574.9 567.531 575.176 562.02 574.706C560.509 574.576 558.948 574.423 557.785 573.334C556.918 572.521 556.511 571.675 556.564 570.48C556.63 568.969 557.721 568.024 558.722 567.051Z"/>
	<path fill="#5597F0" d="M560.011 346.143C572.969 345.659 586.057 346.029 599.031 346.028L650.403 345.817C653.391 345.828 656.51 346.083 658.709 348.303C659.082 349.548 659.321 350.121 658.804 351.404C658.215 352.869 657.285 353.342 655.975 353.988C639.044 354.376 622.043 354.06 605.104 354.116C591.511 354.161 577.739 354.682 564.163 354.19C561.858 354.107 559.089 354.261 557.423 352.455C556.994 351.343 556.848 350.594 557.156 349.409C557.601 347.696 558.614 347.01 560.011 346.143Z"/>
	<path fill="#1E2E51" d="M457.454 460.788C461.977 464.923 463.789 469.095 464.026 475.221C464.203 479.795 463.944 484.408 463.964 488.987C463.99 495.117 464.846 501.919 463.552 507.937C463.056 510.243 462.154 512.386 460.57 514.157Q460.276 514.489 459.966 514.806Q459.656 515.123 459.33 515.424Q459.004 515.724 458.663 516.008Q458.323 516.292 457.968 516.557Q457.613 516.823 457.245 517.071Q456.877 517.318 456.497 517.547Q456.117 517.775 455.726 517.984Q455.335 518.193 454.933 518.381Q454.532 518.57 454.122 518.738Q453.711 518.906 453.293 519.053Q452.875 519.199 452.449 519.325Q452.024 519.45 451.593 519.553Q451.162 519.657 450.726 519.738Q450.29 519.82 449.85 519.879Q449.411 519.938 448.969 519.974Q448.527 520.011 448.084 520.025C440.214 520.226 398.7 520.888 393.313 519.552C390.739 518.914 388.398 517.178 386.51 515.381C385.262 514.194 384.371 512.949 383.698 511.363C392.074 514.041 408.635 512.324 417.753 512.195C424.942 512.094 432.129 512.287 439.315 512.216C444.409 512.167 449.373 511.634 453.061 507.713C454.847 505.815 456.003 503.424 456.596 500.899C458.708 491.908 457.496 470.794 457.454 460.788Z"/>
	<path fill="#5597F0" d="M577.685 708.755C583.11 708.719 616.208 707.664 618.57 709.41Q618.747 709.543 618.906 709.696Q619.065 709.849 619.204 710.021Q619.343 710.193 619.459 710.381Q619.576 710.569 619.668 710.77Q619.761 710.97 619.827 711.181Q619.894 711.392 619.935 711.609Q619.975 711.826 619.988 712.047Q620.001 712.267 619.987 712.488C619.889 713.881 619.365 714.588 618.436 715.558C613.282 717.632 535.036 716.454 520.375 716.46L497.219 716.471C492.708 716.517 487.479 717.173 483.064 716.283C481.8 716.029 480.276 715.498 479.755 714.196C479.239 712.907 479.448 712.276 479.903 711.083C481.469 709.62 483.027 709.151 485.149 708.937C494.182 708.024 504.142 708.966 513.266 708.952L577.685 708.755Z"/>
	<path fill="#5597F0" d="M480.613 374.622C488.525 374.258 496.572 374.534 504.498 374.578L548.141 374.764L589.129 374.583C596.538 374.532 604.11 374.167 611.504 374.571C613.506 374.68 616.776 374.922 618.406 376.262C619.384 377.067 619.388 377.591 619.417 378.728C618.732 380.181 618.176 380.904 616.995 381.994C603.253 383.255 586.937 382.321 573.005 382.324L491.077 382.481C488.349 382.483 479.958 383.122 478.416 380.888C477.699 379.849 477.6 378.672 477.962 377.488C478.392 376.078 479.477 375.397 480.613 374.622Z"/>
	<path fill="#5597F0" d="M482.668 487.708C494.136 487.366 505.688 487.626 517.165 487.614L576.259 487.556Q587.466 487.644 598.672 487.504C603.745 487.443 609.382 486.894 614.39 487.71C616.328 488.026 617.844 488.511 619.054 490.125C619.223 491.44 619.111 492.353 618.384 493.518C617.522 494.9 617.001 494.936 615.514 495.444L527.407 495.444L498.779 495.437C494.32 495.447 489.594 495.842 485.169 495.54C482.675 495.37 480.456 494.265 478.852 492.375C478.497 491.034 478.475 490.978 478.987 489.695C480.244 488.636 481.106 488.223 482.668 487.708Z"/>
	<path fill="#5597F0" d="M481.219 595.05C505.082 594.224 529.255 594.969 553.148 594.956L592.316 594.94C599.454 594.938 606.684 594.685 613.809 595.052C615.232 595.125 617.204 595.094 618.255 596.188C619.047 597.012 619.396 597.879 619.255 599.025C619.051 600.679 618.107 601.65 616.962 602.743C611.519 603.619 605.222 603.047 599.676 603.022L568.521 602.981L514.758 602.958C505.382 602.984 495.793 603.553 486.44 603.06C484.526 602.959 481.922 602.655 480.281 601.556C479.114 600.774 479.002 600.084 478.752 598.775C479.243 597.009 479.893 596.291 481.219 595.05Z"/>
	<path fill="#E9EFFB" d="M410.673 398.633C406.865 391.628 401.714 385.361 397.952 378.2C392.493 367.81 387.623 355.432 391.53 343.672Q391.755 343.006 392.012 342.352Q392.27 341.699 392.561 341.059Q392.851 340.419 393.173 339.794Q393.495 339.17 393.849 338.562Q394.202 337.954 394.585 337.366Q394.969 336.777 395.381 336.208Q395.794 335.639 396.235 335.091Q396.675 334.544 397.143 334.019Q397.611 333.495 398.104 332.994Q398.598 332.494 399.116 332.019Q399.634 331.544 400.175 331.096Q400.716 330.648 401.279 330.227Q401.843 329.807 402.426 329.416Q403.01 329.024 403.612 328.662Q404.215 328.301 404.835 327.97Q405.455 327.639 406.091 327.34Q406.72 327.048 407.363 326.786Q408.007 326.525 408.662 326.296Q409.317 326.067 409.982 325.87Q410.648 325.674 411.323 325.51Q411.997 325.346 412.679 325.216Q413.361 325.086 414.048 324.989Q414.735 324.893 415.426 324.83Q416.118 324.767 416.811 324.739Q417.505 324.71 418.199 324.716Q418.893 324.721 419.586 324.761Q420.279 324.801 420.969 324.874Q421.659 324.948 422.345 325.056Q423.03 325.163 423.71 325.305Q424.389 325.446 425.061 325.62Q425.733 325.795 426.395 326.002Q427.058 326.209 427.709 326.449C436.16 329.583 440.774 335.828 444.435 343.671C448.177 358.973 441.856 372.669 434.026 385.642C429.36 393.371 424.009 401.744 417.993 408.472Q414.232 403.628 410.673 398.633Z"/>
	<path fill="#A1BBF0" d="M416.266 341.065Q416.99 341.045 417.711 341.11Q418.432 341.175 419.14 341.325Q419.848 341.474 420.534 341.705Q421.22 341.937 421.874 342.247C425.086 343.732 427.627 346.267 428.791 349.649Q428.968 350.159 429.092 350.685Q429.216 351.211 429.286 351.746Q429.356 352.282 429.37 352.822Q429.385 353.361 429.344 353.9Q429.304 354.439 429.209 354.97Q429.113 355.502 428.964 356.021Q428.815 356.54 428.613 357.041Q428.412 357.542 428.16 358.02C426.38 361.451 423.271 363.371 419.687 364.495C417.266 364.635 415.206 364.569 412.961 363.527C410.088 362.195 407.968 359.749 406.966 356.756Q406.779 356.197 406.648 355.622Q406.516 355.047 406.441 354.462Q406.366 353.877 406.348 353.287Q406.329 352.697 406.369 352.109Q406.408 351.52 406.504 350.938Q406.6 350.356 406.752 349.786Q406.904 349.217 407.111 348.664Q407.318 348.112 407.577 347.582C409.448 343.852 412.439 342.278 416.266 341.065Z"/>
	<path fill="#E9EFFB" d="M389.573 731.153C386.551 727.958 383.688 724.412 381.826 720.394C377.867 711.851 377.917 701.872 381.268 693.145Q381.584 692.313 381.942 691.498Q382.299 690.683 382.697 689.886Q383.095 689.09 383.532 688.315Q383.969 687.539 384.445 686.787Q384.92 686.034 385.433 685.306Q385.945 684.578 386.493 683.877Q387.041 683.176 387.624 682.503Q388.206 681.83 388.821 681.187Q389.437 680.543 390.083 679.932Q390.73 679.32 391.407 678.742Q392.083 678.163 392.788 677.619Q393.492 677.075 394.223 676.567Q394.954 676.059 395.709 675.588Q396.465 675.117 397.243 674.685Q398.021 674.252 398.819 673.859Q399.618 673.466 400.435 673.113C408.713 669.527 418.334 669.126 426.755 672.478C437.595 676.793 443.773 684.756 448.277 695.199C450.605 705.437 450.361 715.084 444.691 724.243Q444.23 724.983 443.733 725.699Q443.236 726.415 442.704 727.106Q442.173 727.797 441.608 728.46Q441.043 729.124 440.446 729.759Q439.849 730.395 439.221 731Q438.593 731.605 437.937 732.178Q437.28 732.751 436.596 733.292Q435.912 733.832 435.203 734.338Q434.493 734.844 433.759 735.315Q433.025 735.785 432.269 736.219Q431.513 736.653 430.737 737.049Q429.96 737.445 429.165 737.802Q428.37 738.16 427.558 738.478Q426.746 738.795 425.92 739.073Q425.094 739.35 424.255 739.587Q423.416 739.823 422.566 740.018C412.893 742.208 402.924 740.246 394.627 734.871C392.869 733.732 391.162 732.521 389.573 731.153Z"/>
	<path fill="#D17544" d="M412.94 679.183C418.189 678.768 423.408 680.147 427.905 682.866Q428.495 683.222 429.066 683.608Q429.637 683.994 430.187 684.408Q430.738 684.822 431.267 685.264Q431.796 685.705 432.302 686.173Q432.808 686.641 433.29 687.133Q433.772 687.626 434.228 688.142Q434.684 688.659 435.113 689.198Q435.543 689.737 435.944 690.297Q436.346 690.856 436.719 691.436Q437.091 692.015 437.434 692.613Q437.777 693.211 438.09 693.825Q438.402 694.439 438.683 695.069Q438.963 695.698 439.212 696.341Q439.461 696.983 439.676 697.638Q439.892 698.292 440.074 698.957Q440.257 699.621 440.405 700.294C441.887 707.206 440.767 714.106 436.894 720.057C432.025 727.54 425.065 730.752 416.672 732.56C410.158 732.592 404.278 731.413 398.837 727.654C392.927 723.572 388.727 717.142 387.701 710Q387.607 709.329 387.548 708.655Q387.489 707.98 387.463 707.304Q387.438 706.627 387.447 705.95Q387.456 705.273 387.499 704.597Q387.542 703.921 387.62 703.248Q387.697 702.576 387.808 701.908Q387.919 701.24 388.064 700.578Q388.209 699.917 388.387 699.264Q388.565 698.61 388.776 697.967Q388.987 697.323 389.23 696.691Q389.473 696.059 389.747 695.44Q390.022 694.822 390.328 694.217Q390.633 693.613 390.969 693.025Q391.305 692.437 391.67 691.867Q392.035 691.297 392.429 690.745Q392.822 690.194 393.243 689.664C398.272 683.256 404.979 680.123 412.94 679.183Z"/>
	<path fill="#E9EFFB" d="M390.196 623.702C387.378 620.546 384.552 617.086 382.598 613.314C378.562 605.526 378.019 595.915 380.687 587.614Q380.952 586.766 381.259 585.933Q381.566 585.099 381.914 584.282Q382.262 583.465 382.65 582.666Q383.038 581.867 383.465 581.088Q383.892 580.309 384.357 579.553Q384.822 578.796 385.324 578.063Q385.826 577.331 386.364 576.624Q386.902 575.917 387.474 575.237Q388.046 574.558 388.651 573.908Q389.256 573.257 389.892 572.638Q390.529 572.018 391.195 571.431Q391.861 570.844 392.556 570.29Q393.251 569.737 393.972 569.218Q394.693 568.7 395.439 568.218Q396.185 567.736 396.954 567.291Q397.723 566.847 398.513 566.441C406.938 562.199 417.119 561.322 426.072 564.352C436.921 568.024 443.42 575.576 448.329 585.568C451.242 596.012 451.563 605.7 446.073 615.415Q445.647 616.18 445.182 616.923Q444.718 617.667 444.218 618.385Q443.717 619.104 443.181 619.797Q442.645 620.49 442.075 621.156Q441.505 621.821 440.902 622.457Q440.299 623.093 439.666 623.698Q439.032 624.303 438.369 624.876Q437.706 625.448 437.015 625.987Q436.324 626.526 435.607 627.029Q434.889 627.532 434.148 627.999Q433.407 628.466 432.643 628.895Q431.879 629.325 431.095 629.715Q430.311 630.106 429.508 630.456Q428.705 630.807 427.885 631.117Q427.066 631.428 426.232 631.696Q425.398 631.965 424.552 632.192Q423.676 632.424 422.789 632.613Q421.902 632.801 421.007 632.945Q420.112 633.089 419.211 633.188Q418.31 633.286 417.405 633.34Q416.5 633.394 415.593 633.403Q414.687 633.411 413.781 633.375Q412.875 633.338 411.972 633.256Q411.069 633.175 410.171 633.048Q409.274 632.921 408.384 632.75Q407.493 632.578 406.613 632.363Q405.732 632.147 404.863 631.888Q403.995 631.629 403.14 631.326Q402.285 631.024 401.447 630.679Q400.608 630.335 399.788 629.949Q398.968 629.563 398.168 629.136Q397.368 628.71 396.59 628.244C394.321 626.902 392.251 625.345 390.196 623.702Z"/>
	<path fill="#4EBA63" d="M414.47 571.193C420.324 571.294 425.777 572.952 430.533 576.431Q431.096 576.847 431.636 577.291Q432.177 577.735 432.694 578.206Q433.211 578.677 433.703 579.174Q434.195 579.672 434.661 580.193Q435.127 580.715 435.565 581.26Q436.004 581.805 436.414 582.372Q436.824 582.938 437.204 583.525Q437.585 584.112 437.934 584.718Q438.284 585.324 438.602 585.947Q438.92 586.57 439.206 587.208Q439.492 587.847 439.744 588.499Q439.997 589.152 440.216 589.816Q440.434 590.48 440.619 591.155Q440.803 591.83 440.953 592.513Q441.102 593.197 441.216 593.887Q441.33 594.577 441.409 595.272Q441.484 595.923 441.527 596.577Q441.57 597.231 441.58 597.887Q441.591 598.542 441.568 599.197Q441.546 599.853 441.491 600.506Q441.437 601.159 441.349 601.809Q441.262 602.458 441.143 603.103Q441.024 603.747 440.873 604.385Q440.721 605.023 440.539 605.653Q440.356 606.282 440.142 606.902Q439.929 607.522 439.684 608.13Q439.44 608.738 439.166 609.334Q438.892 609.929 438.589 610.51Q438.285 611.091 437.953 611.657Q437.622 612.222 437.262 612.77Q436.903 613.318 436.516 613.848Q436.13 614.377 435.718 614.887C430.743 621.109 423.86 623.774 416.192 624.574C409.68 624.507 403.629 622.849 398.377 618.847C392.874 614.654 388.975 608.369 388.117 601.461C387.229 594.306 389.146 586.99 393.763 581.412C399.045 575.03 406.353 571.891 414.47 571.193Z"/>
	<path fill="#E9EFFB" d="M426.506 587.74C427.577 588.33 427.679 588.415 428.256 589.49C427.363 593.787 418.474 602.467 415.252 605.985C411.564 602.461 408.333 598.435 405.113 594.488C404.384 593.586 403.67 592.664 402.918 591.781C402.74 591.573 402.554 591.372 402.372 591.168L403.24 589.635L402.404 590.682L403.472 589.588C408.36 592.188 411.651 597.336 415.18 601.455Q420.765 594.533 426.506 587.74Z"/>
	<path fill="#E9EFFB" d="M383.698 511.363C381.16 509.368 379.027 507.477 377.729 504.421Q377.2 503.178 376.871 501.868Q376.543 500.558 376.424 499.212C375.979 494.477 376.566 489.46 376.562 484.694C376.558 477.885 375.936 470.718 376.567 463.959C376.79 461.566 377.177 459.107 378.202 456.913C379.655 453.805 382.659 450.964 385.959 449.93C390.052 448.648 437.523 449.063 444.508 449.596C446.757 449.767 448.983 449.965 450.974 451.109C454.828 453.322 456.332 456.651 457.454 460.788C457.496 470.794 458.708 491.908 456.596 500.899C456.003 503.424 454.847 505.815 453.061 507.713C449.373 511.634 444.409 512.167 439.315 512.216C432.129 512.287 424.942 512.094 417.753 512.195C408.635 512.324 392.074 514.041 383.698 511.363Z"/>
	<path fill="#4EBA63" d="M432.918 455.589C437.921 455.126 442.001 460.098 446.658 462.022C446.843 467.272 447.119 472.556 446.066 477.732L439.659 471.659C433.874 477.426 428.064 483.1 421.93 488.496C415.55 494.108 407.912 499.651 402.645 506.27C399.802 503.031 397.196 499.554 394.524 496.173C391.125 491.829 387.69 487.399 384.882 482.647C387.193 480.775 389.554 479.319 392.135 477.852Q398.172 485.513 403.937 493.381C407.947 489.943 411.678 486.134 415.626 482.615C421.93 476.996 428.426 471.574 434.835 466.075C433.311 463.566 429.397 460.92 429.084 458.119C430.157 456.611 431.258 456.357 432.918 455.589Z"/>
</svg>
